<svg width="40" height="40" viewBox="0 0 40 40" version="1.1" xmlns="http://www.w3.org/2000/svg" xmlns:xlink="http://www.w3.org/1999/xlink">
<title>codepen-icon</title>
<desc>Created using Figma</desc>
<g id="Canvas" transform="translate(-985 1680)">
<g id="codepen-icon">
<g id="Rectangle 3">
<use xlink:href="#path0_fill" transform="translate(985 -1680)" fill="#00315F"/>
<mask id="mask0_outline_ins">
<use xlink:href="#path0_fill" fill="white" transform="translate(985 -1680)"/>
</mask>
<g mask="url(#mask0_outline_ins)">
<use xlink:href="#path1_stroke_2x" transform="translate(985 -1680)" fill="#00315F"/>
</g>
</g>
<g id="Symbol">
<g id="Codepen 1">
<use xlink:href="#path2_fill" transform="translate(992 -1671)" fill="#FFFFFF"/>
</g>
</g>
</g>
</g>
<defs>
<path id="path0_fill" d="M 0 0L 40 0L 40 40L 0 40L 0 0Z"/>
<path id="path1_stroke_2x" d="M 0 0L 0 -3L -3 -3L -3 0L 0 0ZM 40 0L 43 0L 43 -3L 40 -3L 40 0ZM 40 40L 40 43L 43 43L 43 40L 40 40ZM 0 40L -3 40L -3 43L 0 43L 0 40ZM 0 3L 40 3L 40 -3L 0 -3L 0 3ZM 37 0L 37 40L 43 40L 43 0L 37 0ZM 40 37L 0 37L 0 43L 40 43L 40 37ZM 3 40L 3 0L -3 0L -3 40L 3 40Z"/>
<path id="path2_fill" d="M 22.8849 13.6203L 20.1901 11.9105L 22.8849 10.2007L 22.8849 13.6203ZM 13.584 20.885L 13.584 16.1088L 18.2555 13.1387L 22.0232 15.5308L 13.584 20.885ZM 12.5111 14.3267L 8.70116 11.9025L 12.5111 9.47823L 16.321 11.9025L 12.5111 14.3267ZM 11.4298 20.885L 2.9905 15.5388L 6.75818 13.1467L 11.4298 16.1168L 11.4298 20.885ZM 2.12883 10.1927L 4.82365 11.9025L 2.12883 13.6123L 2.12883 10.1927ZM 11.4298 2.93598L 11.4298 7.71222L 6.75818 10.6823L 2.9905 8.28216L 11.4298 2.93598ZM 13.584 2.93598L 22.0232 8.28216L 18.2555 10.6823L 13.584 7.71222L 13.584 2.93598ZM 25.0306 8.1457C 25.0306 8.12964 25.0222 8.11359 25.0222 8.09753C 25.0137 8.06542 25.0137 8.04134 25.0053 8.00923C 24.9968 7.99318 24.9968 7.97712 24.9884 7.96107C 24.9799 7.93699 24.9715 7.9129 24.963 7.88882C 24.9546 7.87277 24.9461 7.85671 24.9377 7.84066C 24.9293 7.81658 24.9124 7.7925 24.9039 7.77644C 24.8955 7.76039 24.887 7.74433 24.8701 7.72828C 24.8532 7.70419 24.8448 7.68814 24.8279 7.66406C 24.8194 7.648 24.8025 7.63195 24.7941 7.62392C 24.7772 7.60787 24.7603 7.58379 24.7434 7.56773C 24.7265 7.55168 24.7181 7.54365 24.7012 7.52759C 24.6843 7.51154 24.6589 7.49548 24.642 7.47943C 24.6251 7.4714 24.6082 7.45535 24.5913 7.44732C 24.5829 7.44732 24.5829 7.43929 24.5744 7.43127L 13.1193 0.174594C 12.7561 -0.0581978 12.283 -0.0581978 11.9197 0.174594L 0.464625 7.43127C 0.456178 7.43127 0.456177 7.43929 0.447729 7.44732C 0.430834 7.45535 0.413939 7.4714 0.397043 7.47943C 0.3717 7.49548 0.354805 7.51154 0.337909 7.52759C 0.321014 7.53562 0.312566 7.55168 0.295671 7.56773C 0.278775 7.58379 0.26188 7.60787 0.244984 7.62392C 0.228089 7.63998 0.219641 7.65603 0.211193 7.66406C 0.194298 7.68814 0.177402 7.70419 0.168955 7.72828C 0.160507 7.74433 0.143611 7.76039 0.135164 7.77644C 0.118268 7.80052 0.10982 7.81658 0.101373 7.84066C 0.0929249 7.85671 0.0844776 7.87277 0.0760298 7.88882C 0.0675821 7.9129 0.0591341 7.93699 0.0506864 7.96107C 0.0422387 7.97712 0.0422389 7.99318 0.0337912 8.00923C 0.0253434 8.03331 0.0168953 8.06542 0.0168953 8.09753C 0.0168953 8.11359 0.00844773 8.12964 0.00844773 8.1457C 0 8.18583 1.28902e-07 8.234 1.28902e-07 8.28216L 1.28902e-07 15.5388C 1.28902e-07 15.587 0 15.6271 0.00844773 15.6753C 0.00844773 15.6913 0.0168953 15.7074 0.0168953 15.7154C 0.0253431 15.7475 0.0253434 15.7716 0.0337912 15.8037C 0.0422389 15.8198 0.0422387 15.8358 0.0506864 15.8519C 0.0591341 15.876 0.0675821 15.9001 0.0760298 15.9241C 0.0844776 15.9402 0.0929249 15.9563 0.101373 15.9723C 0.10982 15.9964 0.126716 16.0205 0.135164 16.0446C 0.143611 16.0606 0.152059 16.0767 0.168955 16.0927C 0.18585 16.1168 0.194298 16.1329 0.211193 16.1569C 0.219641 16.173 0.236537 16.189 0.244984 16.2051C 0.26188 16.2212 0.278775 16.2452 0.295671 16.2613C 0.312566 16.2773 0.321014 16.2854 0.337909 16.3014C 0.354805 16.3175 0.380148 16.3335 0.397043 16.3496C 0.413939 16.3576 0.430834 16.3737 0.447729 16.3817C 0.456177 16.3817 0.456178 16.3897 0.464625 16.3978L 11.9197 23.6544C 12.0971 23.7668 12.3083 23.823 12.5195 23.823C 12.7307 23.823 12.9335 23.7668 13.1193 23.6544L 24.5744 16.3978C 24.5829 16.3978 24.5829 16.3897 24.5913 16.3817C 24.6082 16.3737 24.6251 16.3576 24.642 16.3496C 24.6589 16.3335 24.6843 16.3175 24.7012 16.3014C 24.7181 16.2854 24.7265 16.2773 24.7434 16.2613C 24.7603 16.2452 24.7772 16.2212 24.7941 16.2051C 24.8025 16.189 24.8194 16.173 24.8279 16.1569C 24.8448 16.1329 24.8617 16.1168 24.8701 16.0927C 24.8786 16.0767 24.8955 16.0606 24.9039 16.0446C 24.9208 16.0205 24.9293 15.9964 24.9377 15.9723C 24.9461 15.9563 24.9546 15.9402 24.963 15.9241C 24.9715 15.9001 24.9799 15.876 24.9884 15.8519C 24.9968 15.8358 24.9968 15.8198 25.0053 15.8037C 25.0137 15.7716 25.0222 15.7475 25.0222 15.7154C 25.0222 15.6994 25.0306 15.6833 25.0306 15.6753C 25.0391 15.6271 25.0391 15.587 25.0391 15.5388L 25.0391 8.28216C 25.0391 8.234 25.0391 8.18583 25.0306 8.1457Z"/>
</defs>
</svg>
