<svg width="40" height="40" viewBox="0 0 40 40" version="1.1" xmlns="http://www.w3.org/2000/svg" xmlns:xlink="http://www.w3.org/1999/xlink">
<title>github-icon</title>
<desc>Created using Figma</desc>
<g id="Canvas" transform="translate(-1037 1680)">
<g id="github-icon">
<g id="Vector">
<use xlink:href="#path0_fill" transform="translate(1037 -1680)" fill="#00315F"/>
</g>
</g>
</g>
<defs>
<path id="path0_fill" fill-rule="evenodd" d="M 11.6953 20.3787C 11.6593 20.3787 12.09 21.29 12.102 21.29C 13.042 22.9673 14.854 24.01 17.9107 24.2993C 17.4747 24.6247 16.9507 25.242 16.878 25.9553C 16.3293 26.304 15.226 26.4193 14.3687 26.1533C 13.1667 25.7807 12.7067 23.4427 10.9073 23.776C 10.518 23.8473 10.5953 24.1 10.932 24.3153C 11.4807 24.664 11.9967 25.1007 12.3947 26.0293C 12.7007 26.7427 13.3433 28.0167 15.3767 28.0167C 16.1833 28.0167 16.7487 27.9213 16.7487 27.9213C 16.7487 27.9213 16.764 29.742 16.764 30.45C 16.764 31.2667 15.6427 31.4967 15.6427 31.8893C 15.6427 32.0447 16.014 32.0593 16.312 32.0593C 16.9013 32.0593 18.1273 31.576 18.1273 30.7273C 18.1273 30.0533 18.1387 27.7873 18.1387 27.39C 18.1387 26.5233 18.6113 26.2487 18.6113 26.2487C 18.6113 26.2487 18.67 30.8753 18.4987 31.4967C 18.2973 32.226 17.934 32.1227 17.934 32.448C 17.934 32.932 19.41 32.5673 19.8993 31.504C 20.2773 30.678 20.112 26.1373 20.112 26.1373L 20.5153 26.1293C 20.5153 26.1293 20.538 28.2073 20.524 29.1573C 20.51 30.1413 20.442 31.3853 21.0367 31.972C 21.4273 32.358 22.6927 33.0347 22.6927 32.416C 22.6927 32.0567 21.9993 31.7613 21.9993 30.7887L 21.9993 26.312C 22.5533 26.312 22.47 27.784 22.47 27.784L 22.5107 30.5193C 22.5107 30.5193 22.388 31.5153 23.6073 31.932C 24.0373 32.0807 24.9573 32.1207 25.0007 31.872C 25.044 31.6233 23.8927 31.2533 23.882 30.4827C 23.8753 30.0113 23.9033 29.7367 23.9033 27.6913C 23.9033 25.646 23.624 24.89 22.65 24.2873C 25.6553 23.984 27.516 23.2533 28.422 21.2967C 28.4927 21.2987 28.792 20.3827 28.7527 20.3827C 28.956 19.644 29.066 18.77 29.0873 17.7353C 29.082 14.9287 27.7153 13.936 27.4533 13.47C 27.84 11.3453 27.388 10.3787 27.1787 10.0467C 26.404 9.776 24.4847 10.7433 23.4353 11.4247C 21.726 10.9333 18.1113 10.9807 16.756 11.5513C 14.2553 9.792 12.932 10.0613 12.932 10.0613C 12.932 10.0613 12.0767 11.5673 12.706 13.7713C 11.8833 14.802 11.27 15.5313 11.27 17.464C 11.2707 18.5533 11.4013 19.528 11.6953 20.3787ZM 0 0L 40 0L 40 40L 0 40L 0 0Z"/>
</defs>
</svg>
