<svg width="40" height="40" viewBox="0 0 40 40" version="1.1" xmlns="http://www.w3.org/2000/svg" xmlns:xlink="http://www.w3.org/1999/xlink">
<title>twitter-icon</title>
<desc>Created using Figma</desc>
<g id="Canvas" transform="translate(-1141 1680)">
<g id="twitter-icon">
<g id="Rectangle 4">
<use xlink:href="#path0_fill" transform="translate(1141 -1680)" fill="#00315F"/>
<mask id="mask0_outline_ins">
<use xlink:href="#path0_fill" fill="white" transform="translate(1141 -1680)"/>
</mask>
<g mask="url(#mask0_outline_ins)">
<use xlink:href="#path1_stroke_2x" transform="translate(1141 -1680)" fill="#00315F"/>
</g>
</g>
<g id="if_03-twitter_104501">
<g id="Vector">
<use xlink:href="#path2_fill" transform="translate(1147.4 -1671.2)" fill="#FFFFFF"/>
</g>
</g>
</g>
</g>
<defs>
<path id="path0_fill" d="M 0 0L 40 0L 40 40L 0 40L 0 0Z"/>
<path id="path1_stroke_2x" d="M 0 0L 0 -3L -3 -3L -3 0L 0 0ZM 40 0L 43 0L 43 -3L 40 -3L 40 0ZM 40 40L 40 43L 43 43L 43 40L 40 40ZM 0 40L -3 40L -3 43L 0 43L 0 40ZM 0 3L 40 3L 40 -3L 0 -3L 0 3ZM 37 0L 37 40L 43 40L 43 0L 37 0ZM 40 37L 0 37L 0 43L 40 43L 40 37ZM 3 40L 3 0L -3 0L -3 40L 3 40Z"/>
<path id="path2_fill" d="M 27.861 2.58271C 26.8368 3.02143 25.7345 3.31736 24.578 3.44979C 25.7589 2.76856 26.6643 1.68947 27.0913 0.402204C 25.9868 1.03385 24.764 1.49219 23.4616 1.73961C 22.4192 0.669249 20.9335 1.16423e-07 19.2895 1.16423e-07C 16.1331 1.16423e-07 13.5739 2.46609 13.5739 5.50823C 13.5739 5.93931 13.6243 6.3595 13.7221 6.76334C 8.97143 6.53336 4.75916 4.34086 1.93986 1.00823C 1.44783 1.82136 1.16618 2.76747 1.16618 3.77788C 1.16618 5.68862 2.17513 7.37482 3.70892 8.36235C 2.77236 8.33346 1.89066 8.08549 1.1198 7.67293C 1.11924 7.69582 1.11924 7.71926 1.11924 7.74269C 1.11924 10.411 3.08964 12.6367 5.70477 13.1436C 5.22518 13.2689 4.72014 13.3365 4.1987 13.3365C 3.82995 13.3365 3.47195 13.3021 3.12301 13.2373C 3.85088 15.4254 5.96154 17.0184 8.46243 17.0626C 6.50617 18.5401 4.04204 19.4208 1.36356 19.4208C 0.902629 19.4208 0.447356 19.3946 -6.68803e-08 19.3434C 2.5303 20.907 5.53454 21.8182 8.76217 21.8182C 19.2764 21.8182 25.0253 13.4253 25.0253 6.14641C 25.0253 5.90771 25.0202 5.66954 25.0095 5.43302C 26.1259 4.65804 27.0953 3.68741 27.861 2.58271Z"/>
</defs>
</svg>
