<svg width="136" height="136" viewBox="0 0 136 136" version="1.1" xmlns="http://www.w3.org/2000/svg" xmlns:xlink="http://www.w3.org/1999/xlink">
<title>Group</title>
<desc>Created using Figma</desc>
<g id="Canvas" transform="translate(-2882 1034)">
<g id="Group">
<g id="Rectangle">
<mask id="mask0_outline_ins">
<use xlink:href="#path0_fill" fill="white" transform="translate(2882 -1034)"/>
</mask>
<g mask="url(#mask0_outline_ins)">
<use xlink:href="#path1_stroke_2x" transform="translate(2882 -1034)" fill="#FEFEFE"/>
</g>
</g>
<g id="my.">
<use xlink:href="#path2_fill" transform="translate(2898 -1003)" fill="#FEFEFE"/>
</g>
</g>
</g>
<defs>
<path id="path0_fill" d="M 0 0L 136 0L 136 136L 0 136L 0 0Z"/>
<path id="path1_stroke_2x" d="M 0 0L 0 -7L -7 -7L -7 0L 0 0ZM 136 0L 143 0L 143 -7L 136 -7L 136 0ZM 136 136L 136 143L 143 143L 143 136L 136 136ZM 0 136L -7 136L -7 143L 0 143L 0 136ZM 0 7L 136 7L 136 -7L 0 -7L 0 7ZM 129 0L 129 136L 143 136L 143 0L 129 0ZM 136 129L 0 129L 0 143L 136 143L 136 129ZM 7 136L 7 0L -7 0L -7 136L 7 136Z"/>
<path id="path2_fill" d="M 54.2098 70L 48.2338 70L 48.2338 48.04C 48.2338 46.744 48.1618 45.64 48.0178 44.728C 47.9218 43.816 47.6818 42.856 47.2978 41.848C 46.9618 40.792 46.3618 40 45.4978 39.472C 44.6338 38.944 43.5538 38.68 42.2578 38.68C 39.5698 38.68 36.4978 40.312 33.0418 43.576C 33.1378 44.536 33.1858 45.376 33.1858 46.096L 33.1858 70L 27.2098 70L 27.2098 48.04C 27.2098 46.696 27.1618 45.568 27.0658 44.656C 26.9698 43.744 26.7298 42.784 26.3458 41.776C 25.9618 40.768 25.3378 40 24.4738 39.472C 23.6578 38.944 22.5778 38.68 21.2338 38.68C 18.6898 38.68 15.6658 40.264 12.1618 43.432L 12.1618 70L 6.18578 70L 6.18578 44.008C 6.18578 40.12 5.41778 36.928 3.88178 34.432L 10.4338 33.712C 11.1058 35.344 11.5618 37 11.8018 38.68C 15.4498 35.128 18.9298 33.352 22.2418 33.352C 26.8978 33.352 30.1858 35.344 32.1058 39.328C 36.0898 35.344 39.8098 33.352 43.2658 33.352C 47.0578 33.352 49.8178 34.504 51.5458 36.808C 53.3218 39.064 54.2098 42.16 54.2098 46.096L 54.2098 70ZM 65.5931 85.624L 62.8571 85.624L 62.8571 80.8L 63.6491 80.8C 65.0891 80.8 66.3851 80.464 67.5371 79.792C 68.6891 79.168 69.6731 78.232 70.4891 76.984C 71.3531 75.736 72.0251 74.584 72.5051 73.528C 73.0331 72.472 73.5611 71.2 74.0891 69.712L 60.9851 34.216L 67.4651 34.216L 76.9691 61.432L 86.4731 34.216L 92.0891 34.216L 79.4171 70.144C 75.7211 80.464 71.1131 85.624 65.5931 85.624ZM 90.2154 65.968C 90.2154 64.624 90.6714 63.496 91.5834 62.584C 92.4954 61.672 93.6234 61.216 94.9674 61.216C 96.2634 61.216 97.3674 61.696 98.2794 62.656C 99.2394 63.568 99.7194 64.672 99.7194 65.968C 99.7194 67.264 99.2394 68.392 98.2794 69.352C 97.3674 70.264 96.2634 70.72 94.9674 70.72C 93.6714 70.72 92.5434 70.264 91.5834 69.352C 90.6714 68.392 90.2154 67.264 90.2154 65.968Z"/>
</defs>
</svg>
