<svg width="322" height="136" viewBox="0 0 322 136" version="1.1" xmlns="http://www.w3.org/2000/svg" xmlns:xlink="http://www.w3.org/1999/xlink">
<title>Group 4</title>
<desc>Created using Figma</desc>
<g id="Canvas" transform="translate(-2577 2534)">
<g id="Group 4">
<g id="Maurice Yong.">
<use xlink:href="#path0_fill" transform="translate(2721 -2497)" fill="#00315F"/>
</g>
<g id="Web Developer.">
<use xlink:href="#path1_fill" transform="translate(2721 -2473)" fill="#00315F"/>
</g>
<g id="Group">
<g id="Rectangle">
<use xlink:href="#path2_fill" transform="translate(2577 -2534)" fill="#FF7D7E"/>
<mask id="mask0_outline_ins">
<use xlink:href="#path2_fill" fill="white" transform="translate(2577 -2534)"/>
</mask>
<g mask="url(#mask0_outline_ins)">
<use xlink:href="#path3_stroke_2x" transform="translate(2577 -2534)" fill="#00315F"/>
</g>
</g>
<g id="my.">
<use xlink:href="#path4_fill" transform="translate(2593 -2503)" fill="#00315F"/>
</g>
</g>
</g>
</g>
<defs>
<path id="path0_fill" d="M 20.2166 6.804L 20.2166 24L 18.1766 24L 18.1766 11.364C 18.1766 11.196 18.1806 11.016 18.1886 10.824C 18.2046 10.632 18.2206 10.436 18.2366 10.236L 12.3326 20.988C 12.1486 21.348 11.8686 21.528 11.4926 21.528L 11.1566 21.528C 10.7806 21.528 10.5006 21.348 10.3166 20.988L 4.29259 10.188C 4.34059 10.612 4.36459 11.004 4.36459 11.364L 4.36459 24L 2.32459 24L 2.32459 6.804L 4.04059 6.804C 4.24859 6.804 4.40859 6.824 4.52059 6.864C 4.63259 6.904 4.74059 7.016 4.84459 7.2L 10.7846 17.784C 10.8806 17.976 10.9726 18.176 11.0606 18.384C 11.1566 18.592 11.2446 18.804 11.3246 19.02C 11.4046 18.804 11.4886 18.592 11.5766 18.384C 11.6646 18.168 11.7606 17.964 11.8646 17.772L 17.6966 7.2C 17.7926 7.016 17.8966 6.904 18.0086 6.864C 18.1286 6.824 18.2926 6.804 18.5006 6.804L 20.2166 6.804ZM 31.0661 18.528C 30.0821 18.56 29.2421 18.64 28.5461 18.768C 27.8581 18.888 27.2941 19.048 26.8541 19.248C 26.4221 19.448 26.1061 19.684 25.9061 19.956C 25.7141 20.228 25.6181 20.532 25.6181 20.868C 25.6181 21.188 25.6701 21.464 25.7741 21.696C 25.8781 21.928 26.0181 22.12 26.1941 22.272C 26.3781 22.416 26.5901 22.524 26.8301 22.596C 27.0781 22.66 27.3421 22.692 27.6221 22.692C 27.9981 22.692 28.3421 22.656 28.6541 22.584C 28.9661 22.504 29.2581 22.392 29.5301 22.248C 29.8101 22.104 30.0741 21.932 30.3221 21.732C 30.5781 21.532 30.8261 21.304 31.0661 21.048L 31.0661 18.528ZM 24.1661 13.56C 24.8381 12.912 25.5621 12.428 26.3381 12.108C 27.1141 11.788 27.9741 11.628 28.9181 11.628C 29.5981 11.628 30.2021 11.74 30.7301 11.964C 31.2581 12.188 31.7021 12.5 32.0621 12.9C 32.4221 13.3 32.6941 13.784 32.8781 14.352C 33.0621 14.92 33.1541 15.544 33.1541 16.224L 33.1541 24L 32.2061 24C 31.9981 24 31.8381 23.968 31.7261 23.904C 31.6141 23.832 31.5261 23.696 31.4621 23.496L 31.2221 22.344C 30.9021 22.64 30.5901 22.904 30.2861 23.136C 29.9821 23.36 29.6621 23.552 29.3261 23.712C 28.9901 23.864 28.6301 23.98 28.2461 24.06C 27.8701 24.148 27.4501 24.192 26.9861 24.192C 26.5141 24.192 26.0701 24.128 25.6541 24C 25.2381 23.864 24.8741 23.664 24.5621 23.4C 24.2581 23.136 24.0141 22.804 23.8301 22.404C 23.6541 21.996 23.5661 21.516 23.5661 20.964C 23.5661 20.484 23.6981 20.024 23.9621 19.584C 24.2261 19.136 24.6541 18.74 25.2461 18.396C 25.8381 18.052 26.6101 17.772 27.5621 17.556C 28.5141 17.332 29.6821 17.204 31.0661 17.172L 31.0661 16.224C 31.0661 15.28 30.8621 14.568 30.4541 14.088C 30.0461 13.6 29.4501 13.356 28.6661 13.356C 28.1381 13.356 27.6941 13.424 27.3341 13.56C 26.9821 13.688 26.6741 13.836 26.4101 14.004C 26.1541 14.164 25.9301 14.312 25.7381 14.448C 25.5541 14.576 25.3701 14.64 25.1861 14.64C 25.0421 14.64 24.9181 14.604 24.8141 14.532C 24.7101 14.452 24.6221 14.356 24.5501 14.244L 24.1661 13.56ZM 47.1238 11.844L 47.1238 24L 45.8518 24C 45.5478 24 45.3558 23.852 45.2758 23.556L 45.1078 22.248C 44.5798 22.832 43.9878 23.304 43.3318 23.664C 42.6758 24.016 41.9238 24.192 41.0758 24.192C 40.4118 24.192 39.8238 24.084 39.3118 23.868C 38.8078 23.644 38.3838 23.332 38.0398 22.932C 37.6958 22.532 37.4358 22.048 37.2598 21.48C 37.0918 20.912 37.0078 20.284 37.0078 19.596L 37.0078 11.844L 39.1438 11.844L 39.1438 19.596C 39.1438 20.516 39.3518 21.228 39.7678 21.732C 40.1918 22.236 40.8358 22.488 41.6998 22.488C 42.3318 22.488 42.9198 22.34 43.4638 22.044C 44.0158 21.74 44.5238 21.324 44.9878 20.796L 44.9878 11.844L 47.1238 11.844ZM 53.2586 14.28C 53.6426 13.448 54.1146 12.8 54.6746 12.336C 55.2346 11.864 55.9186 11.628 56.7266 11.628C 56.9826 11.628 57.2266 11.656 57.4586 11.712C 57.6986 11.768 57.9106 11.856 58.0946 11.976L 57.9386 13.572C 57.8906 13.772 57.7706 13.872 57.5786 13.872C 57.4666 13.872 57.3026 13.848 57.0866 13.8C 56.8706 13.752 56.6266 13.728 56.3546 13.728C 55.9706 13.728 55.6266 13.784 55.3226 13.896C 55.0266 14.008 54.7586 14.176 54.5186 14.4C 54.2866 14.616 54.0746 14.888 53.8826 15.216C 53.6986 15.536 53.5306 15.904 53.3786 16.32L 53.3786 24L 51.2306 24L 51.2306 11.844L 52.4546 11.844C 52.6866 11.844 52.8466 11.888 52.9346 11.976C 53.0226 12.064 53.0826 12.216 53.1146 12.432L 53.2586 14.28ZM 62.9488 11.844L 62.9488 24L 60.8128 24L 60.8128 11.844L 62.9488 11.844ZM 63.4048 8.028C 63.4048 8.236 63.3608 8.432 63.2728 8.616C 63.1928 8.792 63.0808 8.952 62.9368 9.096C 62.8008 9.232 62.6368 9.34 62.4448 9.42C 62.2608 9.5 62.0648 9.54 61.8568 9.54C 61.6488 9.54 61.4528 9.5 61.2688 9.42C 61.0928 9.34 60.9368 9.232 60.8008 9.096C 60.6648 8.952 60.5568 8.792 60.4768 8.616C 60.3968 8.432 60.3568 8.236 60.3568 8.028C 60.3568 7.82 60.3968 7.624 60.4768 7.44C 60.5568 7.248 60.6648 7.084 60.8008 6.948C 60.9368 6.804 61.0928 6.692 61.2688 6.612C 61.4528 6.532 61.6488 6.492 61.8568 6.492C 62.0648 6.492 62.2608 6.532 62.4448 6.612C 62.6368 6.692 62.8008 6.804 62.9368 6.948C 63.0808 7.084 63.1928 7.248 63.2728 7.44C 63.3608 7.624 63.4048 7.82 63.4048 8.028ZM 75.6384 14.004C 75.5744 14.092 75.5104 14.16 75.4464 14.208C 75.3824 14.256 75.2944 14.28 75.1824 14.28C 75.0624 14.28 74.9304 14.232 74.7864 14.136C 74.6424 14.032 74.4624 13.92 74.2464 13.8C 74.0384 13.68 73.7784 13.572 73.4664 13.476C 73.1624 13.372 72.7864 13.32 72.3384 13.32C 71.7384 13.32 71.2104 13.428 70.7544 13.644C 70.2984 13.852 69.9144 14.156 69.6024 14.556C 69.2984 14.956 69.0664 15.44 68.9064 16.008C 68.7544 16.576 68.6784 17.212 68.6784 17.916C 68.6784 18.652 68.7624 19.308 68.9304 19.884C 69.0984 20.452 69.3344 20.932 69.6384 21.324C 69.9504 21.708 70.3224 22.004 70.7544 22.212C 71.1944 22.412 71.6864 22.512 72.2304 22.512C 72.7504 22.512 73.1784 22.452 73.5144 22.332C 73.8504 22.204 74.1264 22.064 74.3424 21.912C 74.5664 21.76 74.7504 21.624 74.8944 21.504C 75.0464 21.376 75.1944 21.312 75.3384 21.312C 75.5144 21.312 75.6504 21.38 75.7464 21.516L 76.3464 22.296C 76.0824 22.624 75.7824 22.904 75.4464 23.136C 75.1104 23.368 74.7464 23.564 74.3544 23.724C 73.9704 23.876 73.5664 23.988 73.1424 24.06C 72.7184 24.132 72.2864 24.168 71.8464 24.168C 71.0864 24.168 70.3784 24.028 69.7224 23.748C 69.0744 23.468 68.5104 23.064 68.0304 22.536C 67.5504 22 67.1744 21.344 66.9024 20.568C 66.6304 19.792 66.4944 18.908 66.4944 17.916C 66.4944 17.012 66.6184 16.176 66.8664 15.408C 67.1224 14.64 67.4904 13.98 67.9704 13.428C 68.4584 12.868 69.0544 12.432 69.7584 12.12C 70.4704 11.808 71.2864 11.652 72.2064 11.652C 73.0624 11.652 73.8144 11.792 74.4624 12.072C 75.1184 12.344 75.6984 12.732 76.2024 13.236L 75.6384 14.004ZM 87.2844 16.596C 87.2844 16.1 87.2124 15.648 87.0684 15.24C 86.9324 14.824 86.7284 14.468 86.4564 14.172C 86.1924 13.868 85.8684 13.636 85.4844 13.476C 85.1004 13.308 84.6644 13.224 84.1764 13.224C 83.1524 13.224 82.3404 13.524 81.7404 14.124C 81.1484 14.716 80.7804 15.54 80.6364 16.596L 87.2844 16.596ZM 89.0124 22.296C 88.7484 22.616 88.4324 22.896 88.0644 23.136C 87.6964 23.368 87.3004 23.56 86.8764 23.712C 86.4604 23.864 86.0284 23.976 85.5804 24.048C 85.1324 24.128 84.6884 24.168 84.2484 24.168C 83.4084 24.168 82.6324 24.028 81.9204 23.748C 81.2164 23.46 80.6044 23.044 80.0844 22.5C 79.5724 21.948 79.1724 21.268 78.8844 20.46C 78.5964 19.652 78.4524 18.724 78.4524 17.676C 78.4524 16.828 78.5804 16.036 78.8364 15.3C 79.1004 14.564 79.4764 13.928 79.9644 13.392C 80.4524 12.848 81.0484 12.424 81.7524 12.12C 82.4564 11.808 83.2484 11.652 84.1284 11.652C 84.8564 11.652 85.5284 11.776 86.1444 12.024C 86.7684 12.264 87.3044 12.616 87.7524 13.08C 88.2084 13.536 88.5644 14.104 88.8204 14.784C 89.0764 15.456 89.2044 16.224 89.2044 17.088C 89.2044 17.424 89.1684 17.648 89.0964 17.76C 89.0244 17.872 88.8884 17.928 88.6884 17.928L 80.5644 17.928C 80.5884 18.696 80.6924 19.364 80.8764 19.932C 81.0684 20.5 81.3324 20.976 81.6684 21.36C 82.0044 21.736 82.4044 22.02 82.8684 22.212C 83.3324 22.396 83.8524 22.488 84.4284 22.488C 84.9644 22.488 85.4244 22.428 85.8084 22.308C 86.2004 22.18 86.5364 22.044 86.8164 21.9C 87.0964 21.756 87.3284 21.624 87.5124 21.504C 87.7044 21.376 87.8684 21.312 88.0044 21.312C 88.1804 21.312 88.3164 21.38 88.4124 21.516L 89.0124 22.296ZM 105.431 17.148L 105.431 24L 103.103 24L 103.103 17.148L 96.8032 6.804L 98.8432 6.804C 99.0512 6.804 99.2152 6.856 99.3352 6.96C 99.4552 7.056 99.5592 7.184 99.6472 7.344L 103.583 14.028C 103.727 14.308 103.859 14.572 103.979 14.82C 104.099 15.06 104.203 15.304 104.291 15.552C 104.379 15.304 104.479 15.06 104.591 14.82C 104.703 14.572 104.827 14.308 104.963 14.028L 108.887 7.344C 108.959 7.208 109.059 7.084 109.187 6.972C 109.315 6.86 109.479 6.804 109.679 6.804L 111.731 6.804L 105.431 17.148ZM 116.667 11.652C 117.555 11.652 118.355 11.8 119.067 12.096C 119.779 12.392 120.387 12.812 120.891 13.356C 121.395 13.9 121.779 14.56 122.043 15.336C 122.315 16.104 122.451 16.964 122.451 17.916C 122.451 18.876 122.315 19.74 122.043 20.508C 121.779 21.276 121.395 21.932 120.891 22.476C 120.387 23.02 119.779 23.44 119.067 23.736C 118.355 24.024 117.555 24.168 116.667 24.168C 115.771 24.168 114.963 24.024 114.243 23.736C 113.531 23.44 112.923 23.02 112.419 22.476C 111.915 21.932 111.527 21.276 111.255 20.508C 110.991 19.74 110.859 18.876 110.859 17.916C 110.859 16.964 110.991 16.104 111.255 15.336C 111.527 14.56 111.915 13.9 112.419 13.356C 112.923 12.812 113.531 12.392 114.243 12.096C 114.963 11.8 115.771 11.652 116.667 11.652ZM 116.667 22.5C 117.867 22.5 118.763 22.1 119.355 21.3C 119.947 20.492 120.243 19.368 120.243 17.928C 120.243 16.48 119.947 15.352 119.355 14.544C 118.763 13.736 117.867 13.332 116.667 13.332C 116.059 13.332 115.527 13.436 115.071 13.644C 114.623 13.852 114.247 14.152 113.943 14.544C 113.647 14.936 113.423 15.42 113.271 15.996C 113.127 16.564 113.055 17.208 113.055 17.928C 113.055 19.368 113.351 20.492 113.943 21.3C 114.543 22.1 115.451 22.5 116.667 22.5ZM 127.896 13.608C 128.16 13.312 128.44 13.044 128.736 12.804C 129.032 12.564 129.344 12.36 129.672 12.192C 130.008 12.016 130.36 11.884 130.728 11.796C 131.104 11.7 131.508 11.652 131.94 11.652C 132.604 11.652 133.188 11.764 133.692 11.988C 134.204 12.204 134.628 12.516 134.964 12.924C 135.308 13.324 135.568 13.808 135.744 14.376C 135.92 14.944 136.008 15.572 136.008 16.26L 136.008 24L 133.86 24L 133.86 16.26C 133.86 15.34 133.648 14.628 133.224 14.124C 132.808 13.612 132.172 13.356 131.316 13.356C 130.684 13.356 130.092 13.508 129.54 13.812C 128.996 14.116 128.492 14.528 128.028 15.048L 128.028 24L 125.88 24L 125.88 11.844L 127.164 11.844C 127.468 11.844 127.656 11.992 127.728 12.288L 127.896 13.608ZM 144.219 18.06C 144.651 18.06 145.031 18 145.359 17.88C 145.687 17.76 145.963 17.592 146.187 17.376C 146.411 17.16 146.579 16.904 146.691 16.608C 146.803 16.304 146.859 15.972 146.859 15.612C 146.859 14.868 146.631 14.276 146.175 13.836C 145.727 13.396 145.075 13.176 144.219 13.176C 143.355 13.176 142.695 13.396 142.239 13.836C 141.791 14.276 141.567 14.868 141.567 15.612C 141.567 15.972 141.623 16.304 141.735 16.608C 141.855 16.904 142.027 17.16 142.251 17.376C 142.475 17.592 142.751 17.76 143.079 17.88C 143.407 18 143.787 18.06 144.219 18.06ZM 148.071 24.66C 148.071 24.364 147.987 24.124 147.819 23.94C 147.651 23.756 147.423 23.612 147.135 23.508C 146.855 23.404 146.527 23.332 146.151 23.292C 145.775 23.244 145.375 23.208 144.951 23.184C 144.535 23.16 144.111 23.136 143.679 23.112C 143.247 23.088 142.831 23.048 142.431 22.992C 141.983 23.2 141.615 23.464 141.327 23.784C 141.047 24.096 140.907 24.464 140.907 24.888C 140.907 25.16 140.975 25.412 141.111 25.644C 141.255 25.884 141.471 26.088 141.759 26.256C 142.047 26.432 142.407 26.568 142.839 26.664C 143.279 26.768 143.795 26.82 144.387 26.82C 144.963 26.82 145.479 26.768 145.935 26.664C 146.391 26.56 146.775 26.412 147.087 26.22C 147.407 26.028 147.651 25.8 147.819 25.536C 147.987 25.272 148.071 24.98 148.071 24.66ZM 150.243 12.324L 150.243 13.116C 150.243 13.38 150.075 13.548 149.739 13.62L 148.359 13.8C 148.631 14.328 148.767 14.912 148.767 15.552C 148.767 16.144 148.651 16.684 148.419 17.172C 148.195 17.652 147.883 18.064 147.483 18.408C 147.083 18.752 146.603 19.016 146.043 19.2C 145.483 19.384 144.875 19.476 144.219 19.476C 143.651 19.476 143.115 19.408 142.611 19.272C 142.355 19.432 142.159 19.604 142.023 19.788C 141.887 19.964 141.819 20.144 141.819 20.328C 141.819 20.616 141.935 20.836 142.167 20.988C 142.407 21.132 142.719 21.236 143.103 21.3C 143.487 21.364 143.923 21.404 144.411 21.42C 144.907 21.436 145.411 21.464 145.923 21.504C 146.443 21.536 146.947 21.596 147.435 21.684C 147.931 21.772 148.371 21.916 148.755 22.116C 149.139 22.316 149.447 22.592 149.679 22.944C 149.919 23.296 150.039 23.752 150.039 24.312C 150.039 24.832 149.907 25.336 149.643 25.824C 149.387 26.312 149.015 26.744 148.527 27.12C 148.039 27.504 147.439 27.808 146.727 28.032C 146.023 28.264 145.227 28.38 144.339 28.38C 143.451 28.38 142.675 28.292 142.011 28.116C 141.347 27.94 140.795 27.704 140.355 27.408C 139.915 27.112 139.583 26.768 139.359 26.376C 139.143 25.992 139.035 25.588 139.035 25.164C 139.035 24.564 139.223 24.056 139.599 23.64C 139.975 23.224 140.491 22.892 141.147 22.644C 140.787 22.484 140.499 22.272 140.283 22.008C 140.075 21.736 139.971 21.372 139.971 20.916C 139.971 20.74 140.003 20.56 140.067 20.376C 140.131 20.184 140.227 19.996 140.355 19.812C 140.491 19.62 140.655 19.44 140.847 19.272C 141.039 19.104 141.263 18.956 141.519 18.828C 140.919 18.492 140.451 18.048 140.115 17.496C 139.779 16.936 139.611 16.288 139.611 15.552C 139.611 14.96 139.723 14.424 139.947 13.944C 140.179 13.456 140.499 13.044 140.907 12.708C 141.315 12.364 141.799 12.1 142.359 11.916C 142.927 11.732 143.547 11.64 144.219 11.64C 144.747 11.64 145.239 11.7 145.695 11.82C 146.151 11.932 146.567 12.1 146.943 12.324L 150.243 12.324ZM 152.812 22.68C 152.812 22.472 152.848 22.276 152.92 22.092C 153 21.908 153.104 21.748 153.232 21.612C 153.368 21.476 153.528 21.368 153.712 21.288C 153.896 21.208 154.092 21.168 154.3 21.168C 154.508 21.168 154.704 21.208 154.888 21.288C 155.072 21.368 155.232 21.476 155.368 21.612C 155.504 21.748 155.612 21.908 155.692 22.092C 155.772 22.276 155.812 22.472 155.812 22.68C 155.812 22.896 155.772 23.096 155.692 23.28C 155.612 23.456 155.504 23.612 155.368 23.748C 155.232 23.884 155.072 23.988 154.888 24.06C 154.704 24.14 154.508 24.18 154.3 24.18C 154.092 24.18 153.896 24.14 153.712 24.06C 153.528 23.988 153.368 23.884 153.232 23.748C 153.104 23.612 153 23.456 152.92 23.28C 152.848 23.096 152.812 22.896 152.812 22.68Z"/>
<path id="path1_fill" d="M 24.5025 6.804L 19.1385 24L 17.0505 24L 12.6945 10.884C 12.6545 10.756 12.6145 10.62 12.5745 10.476C 12.5425 10.332 12.5065 10.18 12.4665 10.02C 12.4265 10.18 12.3865 10.332 12.3465 10.476C 12.3065 10.62 12.2665 10.756 12.2265 10.884L 7.8465 24L 5.7585 24L 0.394499 6.804L 2.3265 6.804C 2.5345 6.804 2.7065 6.856 2.8425 6.96C 2.9865 7.064 3.0785 7.196 3.1185 7.356L 6.6705 19.308C 6.7265 19.524 6.7785 19.756 6.8265 20.004C 6.8825 20.252 6.9345 20.516 6.9825 20.796C 7.0385 20.516 7.0945 20.252 7.1505 20.004C 7.2145 19.748 7.2825 19.516 7.3545 19.308L 11.3985 7.356C 11.4465 7.22 11.5385 7.096 11.6745 6.984C 11.8185 6.864 11.9905 6.804 12.1905 6.804L 12.8625 6.804C 13.0705 6.804 13.2385 6.856 13.3665 6.96C 13.4945 7.064 13.5905 7.196 13.6545 7.356L 17.6865 19.308C 17.7585 19.516 17.8225 19.74 17.8785 19.98C 17.9425 20.22 18.0025 20.472 18.0585 20.736C 18.0985 20.472 18.1425 20.22 18.1905 19.98C 18.2385 19.74 18.2905 19.516 18.3465 19.308L 21.9105 7.356C 21.9505 7.212 22.0385 7.084 22.1745 6.972C 22.3185 6.86 22.4905 6.804 22.6905 6.804L 24.5025 6.804ZM 34.0549 16.596C 34.0549 16.1 33.9829 15.648 33.8389 15.24C 33.7029 14.824 33.4989 14.468 33.2269 14.172C 32.9629 13.868 32.6389 13.636 32.2549 13.476C 31.8709 13.308 31.4349 13.224 30.9469 13.224C 29.9229 13.224 29.1109 13.524 28.5109 14.124C 27.9189 14.716 27.5509 15.54 27.4069 16.596L 34.0549 16.596ZM 35.7829 22.296C 35.5189 22.616 35.2029 22.896 34.8349 23.136C 34.4669 23.368 34.0709 23.56 33.6469 23.712C 33.2309 23.864 32.7989 23.976 32.3509 24.048C 31.9029 24.128 31.4589 24.168 31.0189 24.168C 30.1789 24.168 29.4029 24.028 28.6909 23.748C 27.9869 23.46 27.3749 23.044 26.8549 22.5C 26.3429 21.948 25.9429 21.268 25.6549 20.46C 25.3669 19.652 25.2229 18.724 25.2229 17.676C 25.2229 16.828 25.3509 16.036 25.6069 15.3C 25.8709 14.564 26.2469 13.928 26.7349 13.392C 27.2229 12.848 27.8189 12.424 28.5229 12.12C 29.2269 11.808 30.0189 11.652 30.8989 11.652C 31.6269 11.652 32.2989 11.776 32.9149 12.024C 33.5389 12.264 34.0749 12.616 34.5229 13.08C 34.9789 13.536 35.3349 14.104 35.5909 14.784C 35.8469 15.456 35.9749 16.224 35.9749 17.088C 35.9749 17.424 35.9389 17.648 35.8669 17.76C 35.7949 17.872 35.6589 17.928 35.4589 17.928L 27.3349 17.928C 27.3589 18.696 27.4629 19.364 27.6469 19.932C 27.8389 20.5 28.1029 20.976 28.4389 21.36C 28.7749 21.736 29.1749 22.02 29.6389 22.212C 30.1029 22.396 30.6229 22.488 31.1989 22.488C 31.7349 22.488 32.1949 22.428 32.5789 22.308C 32.9709 22.18 33.3069 22.044 33.5869 21.9C 33.8669 21.756 34.0989 21.624 34.2829 21.504C 34.4749 21.376 34.6389 21.312 34.7749 21.312C 34.9509 21.312 35.0869 21.38 35.1829 21.516L 35.7829 22.296ZM 41.4666 21.072C 41.8586 21.6 42.2866 21.972 42.7506 22.188C 43.2226 22.404 43.7386 22.512 44.2986 22.512C 45.4426 22.512 46.3186 22.108 46.9266 21.3C 47.5346 20.492 47.8386 19.288 47.8386 17.688C 47.8386 16.2 47.5666 15.108 47.0226 14.412C 46.4866 13.708 45.7186 13.356 44.7186 13.356C 44.0226 13.356 43.4146 13.516 42.8946 13.836C 42.3826 14.156 41.9066 14.608 41.4666 15.192L 41.4666 21.072ZM 41.4666 13.596C 41.9786 13.004 42.5546 12.532 43.1946 12.18C 43.8426 11.828 44.5866 11.652 45.4266 11.652C 46.1386 11.652 46.7786 11.788 47.3466 12.06C 47.9226 12.332 48.4106 12.728 48.8106 13.248C 49.2106 13.76 49.5146 14.384 49.7226 15.12C 49.9386 15.856 50.0466 16.684 50.0466 17.604C 50.0466 18.588 49.9266 19.484 49.6866 20.292C 49.4466 21.1 49.0986 21.792 48.6426 22.368C 48.1946 22.936 47.6466 23.38 46.9986 23.7C 46.3506 24.012 45.6226 24.168 44.8146 24.168C 44.0146 24.168 43.3386 24.02 42.7866 23.724C 42.2426 23.42 41.7666 22.992 41.3586 22.44L 41.2506 23.544C 41.1866 23.848 41.0026 24 40.6986 24L 39.3186 24L 39.3186 6.324L 41.4666 6.324L 41.4666 13.596ZM 75.7369 15.408C 75.7369 16.696 75.5329 17.868 75.1249 18.924C 74.7169 19.98 74.1409 20.884 73.3969 21.636C 72.6529 22.388 71.7569 22.972 70.7089 23.388C 69.6689 23.796 68.5169 24 67.2529 24L 60.8329 24L 60.8329 6.804L 67.2529 6.804C 68.5169 6.804 69.6689 7.012 70.7089 7.428C 71.7569 7.836 72.6529 8.42 73.3969 9.18C 74.1409 9.932 74.7169 10.836 75.1249 11.892C 75.5329 12.948 75.7369 14.12 75.7369 15.408ZM 73.3489 15.408C 73.3489 14.352 73.2049 13.408 72.9169 12.576C 72.6289 11.744 72.2209 11.04 71.6929 10.464C 71.1649 9.888 70.5249 9.448 69.7729 9.144C 69.0209 8.84 68.1809 8.688 67.2529 8.688L 63.1609 8.688L 63.1609 22.116L 67.2529 22.116C 68.1809 22.116 69.0209 21.964 69.7729 21.66C 70.5249 21.356 71.1649 20.92 71.6929 20.352C 72.2209 19.776 72.6289 19.072 72.9169 18.24C 73.2049 17.408 73.3489 16.464 73.3489 15.408ZM 87.2786 16.596C 87.2786 16.1 87.2066 15.648 87.0626 15.24C 86.9266 14.824 86.7226 14.468 86.4506 14.172C 86.1866 13.868 85.8626 13.636 85.4786 13.476C 85.0946 13.308 84.6586 13.224 84.1706 13.224C 83.1466 13.224 82.3346 13.524 81.7346 14.124C 81.1426 14.716 80.7746 15.54 80.6306 16.596L 87.2786 16.596ZM 89.0066 22.296C 88.7426 22.616 88.4266 22.896 88.0586 23.136C 87.6906 23.368 87.2946 23.56 86.8706 23.712C 86.4546 23.864 86.0226 23.976 85.5746 24.048C 85.1266 24.128 84.6826 24.168 84.2426 24.168C 83.4026 24.168 82.6266 24.028 81.9146 23.748C 81.2106 23.46 80.5986 23.044 80.0786 22.5C 79.5666 21.948 79.1666 21.268 78.8786 20.46C 78.5906 19.652 78.4466 18.724 78.4466 17.676C 78.4466 16.828 78.5746 16.036 78.8306 15.3C 79.0946 14.564 79.4706 13.928 79.9586 13.392C 80.4466 12.848 81.0426 12.424 81.7466 12.12C 82.4506 11.808 83.2426 11.652 84.1226 11.652C 84.8506 11.652 85.5226 11.776 86.1386 12.024C 86.7626 12.264 87.2986 12.616 87.7466 13.08C 88.2026 13.536 88.5586 14.104 88.8146 14.784C 89.0706 15.456 89.1986 16.224 89.1986 17.088C 89.1986 17.424 89.1626 17.648 89.0906 17.76C 89.0186 17.872 88.8826 17.928 88.6826 17.928L 80.5586 17.928C 80.5826 18.696 80.6866 19.364 80.8706 19.932C 81.0626 20.5 81.3266 20.976 81.6626 21.36C 81.9986 21.736 82.3986 22.02 82.8626 22.212C 83.3266 22.396 83.8466 22.488 84.4226 22.488C 84.9586 22.488 85.4186 22.428 85.8026 22.308C 86.1946 22.18 86.5306 22.044 86.8106 21.9C 87.0906 21.756 87.3226 21.624 87.5066 21.504C 87.6986 21.376 87.8626 21.312 87.9986 21.312C 88.1746 21.312 88.3106 21.38 88.4066 21.516L 89.0066 22.296ZM 102.7 11.844L 97.7445 24L 95.8245 24L 90.8685 11.844L 92.6085 11.844C 92.7845 11.844 92.9285 11.888 93.0405 11.976C 93.1525 12.064 93.2285 12.168 93.2685 12.288L 96.3525 20.112C 96.4485 20.408 96.5325 20.696 96.6045 20.976C 96.6765 21.256 96.7445 21.536 96.8085 21.816C 96.8725 21.536 96.9405 21.256 97.0125 20.976C 97.0845 20.696 97.1725 20.408 97.2765 20.112L 100.396 12.288C 100.444 12.16 100.524 12.056 100.636 11.976C 100.748 11.888 100.88 11.844 101.032 11.844L 102.7 11.844ZM 113.187 16.596C 113.187 16.1 113.115 15.648 112.971 15.24C 112.835 14.824 112.631 14.468 112.359 14.172C 112.095 13.868 111.771 13.636 111.387 13.476C 111.003 13.308 110.567 13.224 110.079 13.224C 109.055 13.224 108.243 13.524 107.643 14.124C 107.051 14.716 106.683 15.54 106.539 16.596L 113.187 16.596ZM 114.915 22.296C 114.651 22.616 114.335 22.896 113.967 23.136C 113.599 23.368 113.203 23.56 112.779 23.712C 112.363 23.864 111.931 23.976 111.483 24.048C 111.035 24.128 110.591 24.168 110.151 24.168C 109.311 24.168 108.535 24.028 107.823 23.748C 107.119 23.46 106.507 23.044 105.987 22.5C 105.475 21.948 105.075 21.268 104.787 20.46C 104.499 19.652 104.355 18.724 104.355 17.676C 104.355 16.828 104.483 16.036 104.739 15.3C 105.003 14.564 105.379 13.928 105.867 13.392C 106.355 12.848 106.951 12.424 107.655 12.12C 108.359 11.808 109.151 11.652 110.031 11.652C 110.759 11.652 111.431 11.776 112.047 12.024C 112.671 12.264 113.207 12.616 113.655 13.08C 114.111 13.536 114.467 14.104 114.723 14.784C 114.979 15.456 115.107 16.224 115.107 17.088C 115.107 17.424 115.071 17.648 114.999 17.76C 114.927 17.872 114.791 17.928 114.591 17.928L 106.467 17.928C 106.491 18.696 106.595 19.364 106.779 19.932C 106.971 20.5 107.235 20.976 107.571 21.36C 107.907 21.736 108.307 22.02 108.771 22.212C 109.235 22.396 109.755 22.488 110.331 22.488C 110.867 22.488 111.327 22.428 111.711 22.308C 112.103 22.18 112.439 22.044 112.719 21.9C 112.999 21.756 113.231 21.624 113.415 21.504C 113.607 21.376 113.771 21.312 113.907 21.312C 114.083 21.312 114.219 21.38 114.315 21.516L 114.915 22.296ZM 120.659 6.324L 120.659 24L 118.523 24L 118.523 6.324L 120.659 6.324ZM 129.967 11.652C 130.855 11.652 131.655 11.8 132.367 12.096C 133.079 12.392 133.687 12.812 134.191 13.356C 134.695 13.9 135.079 14.56 135.343 15.336C 135.615 16.104 135.751 16.964 135.751 17.916C 135.751 18.876 135.615 19.74 135.343 20.508C 135.079 21.276 134.695 21.932 134.191 22.476C 133.687 23.02 133.079 23.44 132.367 23.736C 131.655 24.024 130.855 24.168 129.967 24.168C 129.071 24.168 128.263 24.024 127.543 23.736C 126.831 23.44 126.223 23.02 125.719 22.476C 125.215 21.932 124.827 21.276 124.555 20.508C 124.291 19.74 124.159 18.876 124.159 17.916C 124.159 16.964 124.291 16.104 124.555 15.336C 124.827 14.56 125.215 13.9 125.719 13.356C 126.223 12.812 126.831 12.392 127.543 12.096C 128.263 11.8 129.071 11.652 129.967 11.652ZM 129.967 22.5C 131.167 22.5 132.063 22.1 132.655 21.3C 133.247 20.492 133.543 19.368 133.543 17.928C 133.543 16.48 133.247 15.352 132.655 14.544C 132.063 13.736 131.167 13.332 129.967 13.332C 129.359 13.332 128.827 13.436 128.371 13.644C 127.923 13.852 127.547 14.152 127.243 14.544C 126.947 14.936 126.723 15.42 126.571 15.996C 126.427 16.564 126.355 17.208 126.355 17.928C 126.355 19.368 126.651 20.492 127.243 21.3C 127.843 22.1 128.751 22.5 129.967 22.5ZM 141.328 21.072C 141.72 21.6 142.148 21.972 142.612 22.188C 143.076 22.404 143.596 22.512 144.172 22.512C 145.308 22.512 146.18 22.108 146.788 21.3C 147.396 20.492 147.7 19.34 147.7 17.844C 147.7 17.052 147.628 16.372 147.484 15.804C 147.348 15.236 147.148 14.772 146.884 14.412C 146.62 14.044 146.296 13.776 145.912 13.608C 145.528 13.44 145.092 13.356 144.604 13.356C 143.908 13.356 143.296 13.516 142.768 13.836C 142.248 14.156 141.768 14.608 141.328 15.192L 141.328 21.072ZM 141.22 13.728C 141.732 13.096 142.324 12.588 142.996 12.204C 143.668 11.82 144.436 11.628 145.3 11.628C 146.004 11.628 146.64 11.764 147.208 12.036C 147.776 12.3 148.26 12.696 148.66 13.224C 149.06 13.744 149.368 14.392 149.584 15.168C 149.8 15.944 149.908 16.836 149.908 17.844C 149.908 18.74 149.788 19.576 149.548 20.352C 149.308 21.12 148.96 21.788 148.504 22.356C 148.056 22.916 147.504 23.36 146.848 23.688C 146.2 24.008 145.468 24.168 144.652 24.168C 143.908 24.168 143.268 24.044 142.732 23.796C 142.204 23.54 141.736 23.188 141.328 22.74L 141.328 28.116L 139.18 28.116L 139.18 11.844L 140.464 11.844C 140.768 11.844 140.956 11.992 141.028 12.288L 141.22 13.728ZM 161.489 16.596C 161.489 16.1 161.417 15.648 161.273 15.24C 161.137 14.824 160.933 14.468 160.661 14.172C 160.397 13.868 160.073 13.636 159.689 13.476C 159.305 13.308 158.869 13.224 158.381 13.224C 157.357 13.224 156.545 13.524 155.945 14.124C 155.353 14.716 154.985 15.54 154.841 16.596L 161.489 16.596ZM 163.217 22.296C 162.953 22.616 162.637 22.896 162.269 23.136C 161.901 23.368 161.505 23.56 161.081 23.712C 160.665 23.864 160.233 23.976 159.785 24.048C 159.337 24.128 158.893 24.168 158.453 24.168C 157.613 24.168 156.837 24.028 156.125 23.748C 155.421 23.46 154.809 23.044 154.289 22.5C 153.777 21.948 153.377 21.268 153.089 20.46C 152.801 19.652 152.657 18.724 152.657 17.676C 152.657 16.828 152.785 16.036 153.041 15.3C 153.305 14.564 153.681 13.928 154.169 13.392C 154.657 12.848 155.253 12.424 155.957 12.12C 156.661 11.808 157.453 11.652 158.333 11.652C 159.061 11.652 159.733 11.776 160.349 12.024C 160.973 12.264 161.509 12.616 161.957 13.08C 162.413 13.536 162.769 14.104 163.025 14.784C 163.281 15.456 163.409 16.224 163.409 17.088C 163.409 17.424 163.373 17.648 163.301 17.76C 163.229 17.872 163.093 17.928 162.893 17.928L 154.769 17.928C 154.793 18.696 154.897 19.364 155.081 19.932C 155.273 20.5 155.537 20.976 155.873 21.36C 156.209 21.736 156.609 22.02 157.073 22.212C 157.537 22.396 158.057 22.488 158.633 22.488C 159.169 22.488 159.629 22.428 160.013 22.308C 160.405 22.18 160.741 22.044 161.021 21.9C 161.301 21.756 161.533 21.624 161.717 21.504C 161.909 21.376 162.073 21.312 162.209 21.312C 162.385 21.312 162.521 21.38 162.617 21.516L 163.217 22.296ZM 168.781 14.28C 169.165 13.448 169.637 12.8 170.197 12.336C 170.757 11.864 171.441 11.628 172.249 11.628C 172.505 11.628 172.749 11.656 172.981 11.712C 173.221 11.768 173.433 11.856 173.617 11.976L 173.461 13.572C 173.413 13.772 173.293 13.872 173.101 13.872C 172.989 13.872 172.825 13.848 172.609 13.8C 172.393 13.752 172.149 13.728 171.877 13.728C 171.493 13.728 171.149 13.784 170.845 13.896C 170.549 14.008 170.281 14.176 170.041 14.4C 169.809 14.616 169.597 14.888 169.405 15.216C 169.221 15.536 169.053 15.904 168.901 16.32L 168.901 24L 166.753 24L 166.753 11.844L 167.977 11.844C 168.209 11.844 168.369 11.888 168.457 11.976C 168.545 12.064 168.605 12.216 168.637 12.432L 168.781 14.28ZM 174.918 22.68C 174.918 22.472 174.954 22.276 175.026 22.092C 175.106 21.908 175.21 21.748 175.338 21.612C 175.474 21.476 175.634 21.368 175.818 21.288C 176.002 21.208 176.198 21.168 176.406 21.168C 176.614 21.168 176.81 21.208 176.994 21.288C 177.178 21.368 177.338 21.476 177.474 21.612C 177.61 21.748 177.718 21.908 177.798 22.092C 177.878 22.276 177.918 22.472 177.918 22.68C 177.918 22.896 177.878 23.096 177.798 23.28C 177.718 23.456 177.61 23.612 177.474 23.748C 177.338 23.884 177.178 23.988 176.994 24.06C 176.81 24.14 176.614 24.18 176.406 24.18C 176.198 24.18 176.002 24.14 175.818 24.06C 175.634 23.988 175.474 23.884 175.338 23.748C 175.21 23.612 175.106 23.456 175.026 23.28C 174.954 23.096 174.918 22.896 174.918 22.68Z"/>
<path id="path2_fill" d="M 0 0L 136 0L 136 136L 0 136L 0 0Z"/>
<path id="path3_stroke_2x" d="M 0 0L 0 -7L -7 -7L -7 0L 0 0ZM 136 0L 143 0L 143 -7L 136 -7L 136 0ZM 136 136L 136 143L 143 143L 143 136L 136 136ZM 0 136L -7 136L -7 143L 0 143L 0 136ZM 0 7L 136 7L 136 -7L 0 -7L 0 7ZM 129 0L 129 136L 143 136L 143 0L 129 0ZM 136 129L 0 129L 0 143L 136 143L 136 129ZM 7 136L 7 0L -7 0L -7 136L 7 136Z"/>
<path id="path4_fill" d="M 54.2098 70L 48.2338 70L 48.2338 48.04C 48.2338 46.744 48.1618 45.64 48.0178 44.728C 47.9218 43.816 47.6818 42.856 47.2978 41.848C 46.9618 40.792 46.3618 40 45.4978 39.472C 44.6338 38.944 43.5538 38.68 42.2578 38.68C 39.5698 38.68 36.4978 40.312 33.0418 43.576C 33.1378 44.536 33.1858 45.376 33.1858 46.096L 33.1858 70L 27.2098 70L 27.2098 48.04C 27.2098 46.696 27.1618 45.568 27.0658 44.656C 26.9698 43.744 26.7298 42.784 26.3458 41.776C 25.9618 40.768 25.3378 40 24.4738 39.472C 23.6578 38.944 22.5778 38.68 21.2338 38.68C 18.6898 38.68 15.6658 40.264 12.1618 43.432L 12.1618 70L 6.18578 70L 6.18578 44.008C 6.18578 40.12 5.41778 36.928 3.88178 34.432L 10.4338 33.712C 11.1058 35.344 11.5618 37 11.8018 38.68C 15.4498 35.128 18.9298 33.352 22.2418 33.352C 26.8978 33.352 30.1858 35.344 32.1058 39.328C 36.0898 35.344 39.8098 33.352 43.2658 33.352C 47.0578 33.352 49.8178 34.504 51.5458 36.808C 53.3218 39.064 54.2098 42.16 54.2098 46.096L 54.2098 70ZM 65.5931 85.624L 62.8571 85.624L 62.8571 80.8L 63.6491 80.8C 65.0891 80.8 66.3851 80.464 67.5371 79.792C 68.6891 79.168 69.6731 78.232 70.4891 76.984C 71.3531 75.736 72.0251 74.584 72.5051 73.528C 73.0331 72.472 73.5611 71.2 74.0891 69.712L 60.9851 34.216L 67.4651 34.216L 76.9691 61.432L 86.4731 34.216L 92.0891 34.216L 79.4171 70.144C 75.7211 80.464 71.1131 85.624 65.5931 85.624ZM 90.2154 65.968C 90.2154 64.624 90.6714 63.496 91.5834 62.584C 92.4954 61.672 93.6234 61.216 94.9674 61.216C 96.2634 61.216 97.3674 61.696 98.2794 62.656C 99.2394 63.568 99.7194 64.672 99.7194 65.968C 99.7194 67.264 99.2394 68.392 98.2794 69.352C 97.3674 70.264 96.2634 70.72 94.9674 70.72C 93.6714 70.72 92.5434 70.264 91.5834 69.352C 90.6714 68.392 90.2154 67.264 90.2154 65.968Z"/>
</defs>
</svg>
