<svg width="217" height="60" viewBox="0 0 217 60" version="1.1" xmlns="http://www.w3.org/2000/svg" xmlns:xlink="http://www.w3.org/1999/xlink">
<title>my.Contact</title>
<desc>Created using Figma</desc>
<g id="Canvas" transform="translate(-2519 703)">
<g id="my.Contact">
<g id="my.Contact">
<g id="Rectangle 2">
<mask id="mask0_outline_ins">
<use xlink:href="#path0_fill" fill="white" transform="translate(2576 -703)"/>
</mask>
<g mask="url(#mask0_outline_ins)">
<use xlink:href="#path1_stroke_2x" transform="translate(2576 -703)" fill="#00315F"/>
</g>
</g>
<g id="Contact">
<use xlink:href="#path2_fill" transform="translate(2587 -697)" fill="#00315F"/>
</g>
</g>
<g id="Rectangle">
<g id="Vector">
<use xlink:href="#path3_fill" transform="translate(2519 -703)" fill="#0AC940"/>
</g>
<mask id="mask1_alpha" mask-type="alpha">
<g id="mask0 outline ins">
<g id="Vector">
<use xlink:href="#path3_fill" transform="translate(2519 -703)" fill="#FFFFFF"/>
</g>
</g>
</mask>
<g id="Group" mask="url(#mask1_alpha)">
<g id="Vector">
<use xlink:href="#path4_fill" transform="translate(2515.91 -706.088)" fill="#00315F"/>
</g>
</g>
</g>
<g id="my.">
<g id="Vector">
<use xlink:href="#path5_fill" transform="translate(2527.77 -674.609)" fill="#FEFEFE"/>
</g>
</g>
</g>
</g>
<defs>
<path id="path0_fill" d="M 0 0L 160 0L 160 60L 0 60L 0 0Z"/>
<path id="path1_stroke_2x" d="M 0 0L 0 -2.5L -2.5 -2.5L -2.5 0L 0 0ZM 160 0L 162.5 0L 162.5 -2.5L 160 -2.5L 160 0ZM 160 60L 160 62.5L 162.5 62.5L 162.5 60L 160 60ZM 0 60L -2.5 60L -2.5 62.5L 0 62.5L 0 60ZM 0 2.5L 160 2.5L 160 -2.5L 0 -2.5L 0 2.5ZM 157.5 0L 157.5 60L 162.5 60L 162.5 0L 157.5 0ZM 160 57.5L 0 57.5L 0 62.5L 160 62.5L 160 57.5ZM 2.5 60L 2.5 0L -2.5 0L -2.5 60L 2.5 60Z"/>
<path id="path2_fill" d="M 13.356 13.008C 14.796 13.008 16.02 13.212 17.028 13.62C 18.036 14.028 19.02 14.604 19.98 15.348C 20.244 15.564 20.472 15.672 20.664 15.672C 21.144 15.672 21.456 14.952 21.6 13.512L 22.428 13.512C 22.332 15.072 22.284 17.832 22.284 21.792L 21.456 21.792C 21.192 20.232 20.952 19.116 20.736 18.444C 20.52 17.748 20.16 17.088 19.656 16.464C 18.936 15.528 18.012 14.832 16.884 14.376C 15.78 13.896 14.58 13.656 13.284 13.656C 11.724 13.656 10.356 14.172 9.18 15.204C 8.028 16.236 7.128 17.712 6.48 19.632C 5.832 21.528 5.508 23.76 5.508 26.328C 5.508 28.944 5.856 31.188 6.552 33.06C 7.248 34.932 8.208 36.36 9.432 37.344C 10.68 38.304 12.084 38.784 13.644 38.784C 14.844 38.784 16.008 38.556 17.136 38.1C 18.264 37.644 19.152 36.96 19.8 36.048C 20.28 35.376 20.628 34.656 20.844 33.888C 21.06 33.12 21.264 31.944 21.456 30.36L 22.284 30.36C 22.284 34.488 22.332 37.368 22.428 39L 21.6 39C 21.528 38.232 21.42 37.692 21.276 37.38C 21.156 37.044 20.976 36.876 20.736 36.876C 20.544 36.876 20.292 36.972 19.98 37.164C 18.9 37.932 17.868 38.52 16.884 38.928C 15.9 39.312 14.712 39.504 13.32 39.504C 11.04 39.504 9.036 38.988 7.308 37.956C 5.604 36.924 4.272 35.436 3.312 33.492C 2.376 31.524 1.908 29.184 1.908 26.472C 1.908 23.832 2.388 21.492 3.348 19.452C 4.332 17.412 5.688 15.828 7.416 14.7C 9.168 13.572 11.148 13.008 13.356 13.008ZM 35.7292 19.956C 38.1772 19.956 40.1452 20.772 41.6332 22.404C 43.1452 24.012 43.9012 26.46 43.9012 29.748C 43.9012 33.036 43.1452 35.484 41.6332 37.092C 40.1452 38.7 38.1772 39.504 35.7292 39.504C 33.2812 39.504 31.3012 38.7 29.7892 37.092C 28.3012 35.484 27.5572 33.036 27.5572 29.748C 27.5572 26.46 28.3012 24.012 29.7892 22.404C 31.3012 20.772 33.2812 19.956 35.7292 19.956ZM 35.7292 20.676C 34.2892 20.676 33.1492 21.42 32.3092 22.908C 31.4692 24.372 31.0492 26.652 31.0492 29.748C 31.0492 32.844 31.4692 35.124 32.3092 36.588C 33.1492 38.052 34.2892 38.784 35.7292 38.784C 37.1692 38.784 38.3092 38.052 39.1492 36.588C 39.9892 35.124 40.4092 32.844 40.4092 29.748C 40.4092 26.652 39.9892 24.372 39.1492 22.908C 38.3092 21.42 37.1692 20.676 35.7292 20.676ZM 59.8078 19.956C 61.4878 19.956 62.7598 20.412 63.6238 21.324C 64.0798 21.804 64.4038 22.404 64.5958 23.124C 64.7878 23.844 64.8838 24.816 64.8838 26.04L 64.8838 35.652C 64.8838 36.636 65.0878 37.32 65.4958 37.704C 65.9038 38.064 66.6118 38.244 67.6198 38.244L 67.6198 39C 65.4118 38.904 63.9718 38.856 63.2998 38.856C 62.6278 38.856 61.2838 38.904 59.2678 39L 59.2678 38.244C 60.1558 38.244 60.7678 38.064 61.1038 37.704C 61.4638 37.32 61.6438 36.636 61.6438 35.652L 61.6438 25.248C 61.6438 23.904 61.4518 22.884 61.0678 22.188C 60.6838 21.468 59.9038 21.108 58.7278 21.108C 57.7438 21.108 56.8678 21.396 56.0998 21.972C 55.3318 22.548 54.7318 23.34 54.2998 24.348C 53.8918 25.332 53.6878 26.436 53.6878 27.66L 53.6878 35.652C 53.6878 36.636 53.8558 37.32 54.1918 37.704C 54.5518 38.064 55.1758 38.244 56.0638 38.244L 56.0638 39C 54.0478 38.904 52.7038 38.856 52.0318 38.856C 51.3598 38.856 49.9198 38.904 47.7118 39L 47.7118 38.244C 48.7198 38.244 49.4278 38.064 49.8358 37.704C 50.2438 37.32 50.4478 36.636 50.4478 35.652L 50.4478 24.384C 50.4478 23.28 50.2438 22.476 49.8358 21.972C 49.4278 21.468 48.7198 21.216 47.7118 21.216L 47.7118 20.46C 48.4798 20.532 49.2238 20.568 49.9438 20.568C 51.4558 20.568 52.7038 20.4 53.6878 20.064L 53.6878 24.312C 54.2878 22.776 55.1158 21.672 56.1718 21C 57.2518 20.304 58.4638 19.956 59.8078 19.956ZM 76.0683 20.496L 81.3963 20.496L 81.3963 21.216L 76.0683 21.216L 76.0683 35.148C 76.0683 36.228 76.2603 37.008 76.6443 37.488C 77.0523 37.968 77.6283 38.208 78.3723 38.208C 79.1163 38.208 79.7523 37.908 80.2803 37.308C 80.8083 36.708 81.2523 35.724 81.6123 34.356L 82.3323 34.536C 81.7323 37.848 80.1723 39.504 77.6523 39.504C 76.8363 39.504 76.1643 39.408 75.6363 39.216C 75.1083 39.024 74.6403 38.724 74.2323 38.316C 73.7043 37.788 73.3323 37.14 73.1163 36.372C 72.9243 35.604 72.8283 34.572 72.8283 33.276L 72.8283 21.216L 69.3723 21.216L 69.3723 20.496L 72.8283 20.496L 72.8283 14.988C 74.1723 14.94 75.2523 14.772 76.0683 14.484L 76.0683 20.496ZM 88.9028 39.252C 87.3908 39.252 86.2628 38.88 85.5188 38.136C 84.7988 37.368 84.4388 36.312 84.4388 34.968C 84.4388 33.888 84.7268 33 85.3028 32.304C 85.9028 31.608 86.5988 31.056 87.3908 30.648C 88.2068 30.24 89.2748 29.808 90.5948 29.352C 91.9388 28.896 92.9348 28.476 93.5828 28.092C 94.2308 27.708 94.5548 27.192 94.5548 26.544L 94.5548 24.312C 94.5548 22.92 94.2548 21.972 93.6548 21.468C 93.0788 20.94 92.2628 20.676 91.2068 20.676C 89.5268 20.676 88.3388 21.108 87.6428 21.972C 88.1228 22.092 88.5188 22.344 88.8308 22.728C 89.1668 23.112 89.3348 23.592 89.3348 24.168C 89.3348 24.768 89.1428 25.248 88.7588 25.608C 88.3748 25.944 87.8828 26.112 87.2828 26.112C 86.6108 26.112 86.1068 25.908 85.7708 25.5C 85.4348 25.068 85.2668 24.552 85.2668 23.952C 85.2668 23.376 85.3988 22.896 85.6628 22.512C 85.9508 22.128 86.3708 21.744 86.9228 21.36C 87.4988 20.952 88.2308 20.616 89.1188 20.352C 90.0068 20.088 90.9788 19.956 92.0348 19.956C 93.9068 19.956 95.3228 20.4 96.2828 21.288C 96.8828 21.84 97.2788 22.512 97.4708 23.304C 97.6868 24.072 97.7948 25.092 97.7948 26.364L 97.7948 36.372C 97.7948 36.972 97.8788 37.404 98.0468 37.668C 98.2148 37.932 98.5028 38.064 98.9108 38.064C 99.1988 38.064 99.4628 38.004 99.7028 37.884C 99.9668 37.74 100.243 37.548 100.531 37.308L 100.927 37.92C 100.303 38.4 99.7628 38.748 99.3068 38.964C 98.8748 39.156 98.3228 39.252 97.6508 39.252C 96.4988 39.252 95.6948 38.964 95.2388 38.388C 94.7828 37.812 94.5548 37.032 94.5548 36.048C 93.8348 37.248 93.0068 38.088 92.0708 38.568C 91.1348 39.024 90.0788 39.252 88.9028 39.252ZM 90.4868 37.812C 92.0708 37.812 93.4268 36.9 94.5548 35.076L 94.5548 28.02C 94.3388 28.356 94.0388 28.632 93.6548 28.848C 93.2708 29.064 92.6828 29.352 91.8908 29.712C 90.9788 30.096 90.2348 30.468 89.6588 30.828C 89.1068 31.164 88.6268 31.632 88.2188 32.232C 87.8108 32.832 87.6068 33.6 87.6068 34.536C 87.6068 35.616 87.8708 36.432 88.3988 36.984C 88.9268 37.536 89.6228 37.812 90.4868 37.812ZM 112.089 19.956C 113.697 19.956 115.089 20.34 116.265 21.108C 117.393 21.852 117.957 22.776 117.957 23.88C 117.957 24.504 117.777 24.996 117.417 25.356C 117.057 25.716 116.601 25.896 116.049 25.896C 115.497 25.896 115.029 25.74 114.645 25.428C 114.261 25.092 114.069 24.648 114.069 24.096C 114.069 23.592 114.213 23.172 114.501 22.836C 114.789 22.476 115.149 22.236 115.581 22.116C 115.341 21.684 114.909 21.324 114.285 21.036C 113.685 20.748 113.037 20.604 112.341 20.604C 111.453 20.604 110.625 20.892 109.857 21.468C 109.089 22.02 108.453 22.956 107.949 24.276C 107.445 25.572 107.193 27.288 107.193 29.424C 107.193 32.4 107.673 34.572 108.633 35.94C 109.593 37.284 110.841 37.956 112.377 37.956C 113.409 37.956 114.381 37.656 115.293 37.056C 116.229 36.456 116.997 35.52 117.597 34.248L 118.281 34.5C 117.873 35.868 117.105 37.044 115.977 38.028C 114.873 39.012 113.433 39.504 111.657 39.504C 110.169 39.504 108.813 39.12 107.589 38.352C 106.389 37.584 105.441 36.48 104.745 35.04C 104.049 33.576 103.701 31.884 103.701 29.964C 103.701 28.02 104.049 26.292 104.745 24.78C 105.465 23.268 106.461 22.092 107.733 21.252C 109.005 20.388 110.457 19.956 112.089 19.956ZM 127.472 20.496L 132.8 20.496L 132.8 21.216L 127.472 21.216L 127.472 35.148C 127.472 36.228 127.664 37.008 128.048 37.488C 128.456 37.968 129.032 38.208 129.776 38.208C 130.52 38.208 131.156 37.908 131.684 37.308C 132.212 36.708 132.656 35.724 133.016 34.356L 133.736 34.536C 133.136 37.848 131.576 39.504 129.056 39.504C 128.24 39.504 127.568 39.408 127.04 39.216C 126.512 39.024 126.044 38.724 125.636 38.316C 125.108 37.788 124.736 37.14 124.52 36.372C 124.328 35.604 124.232 34.572 124.232 33.276L 124.232 21.216L 120.776 21.216L 120.776 20.496L 124.232 20.496L 124.232 14.988C 125.576 14.94 126.656 14.772 127.472 14.484L 127.472 20.496Z"/>
<path id="path3_fill" d="M 0 0L 60 0L 60 60L 0 60L 0 0Z"/>
<path id="path4_fill" d="M 3.08824 3.08824L 3.08824 0L 0 0L 0 3.08824L 3.08824 3.08824ZM 63.0882 3.08824L 66.1765 3.08824L 66.1765 0L 63.0882 0L 63.0882 3.08824ZM 63.0882 63.0882L 63.0882 66.1765L 66.1765 66.1765L 66.1765 63.0882L 63.0882 63.0882ZM 3.08824 63.0882L 0 63.0882L 0 66.1765L 3.08824 66.1765L 3.08824 63.0882ZM 3.08824 6.17647L 63.0882 6.17647L 63.0882 0L 3.08824 0L 3.08824 6.17647ZM 60 3.08824L 60 63.0882L 66.1765 63.0882L 66.1765 3.08824L 60 3.08824ZM 63.0882 60L 3.08824 60L 3.08824 66.1765L 63.0882 66.1765L 63.0882 60ZM 6.17647 63.0882L 6.17647 3.08824L 0 3.08824L 0 63.0882L 6.17647 63.0882Z"/>
<path id="path5_fill" d="M 22.2035 16.1682L 19.5671 16.1682L 19.5671 6.48C 19.5671 5.90824 19.5353 5.42118 19.4718 5.01882C 19.4294 4.61647 19.3235 4.19294 19.1541 3.74823C 19.0059 3.28235 18.7412 2.93294 18.36 2.7C 17.9788 2.46706 17.5024 2.35059 16.9306 2.35059C 15.7447 2.35059 14.3894 3.07059 12.8647 4.51059C 12.9071 4.93412 12.9282 5.30471 12.9282 5.62235L 12.9282 16.1682L 10.2918 16.1682L 10.2918 6.48C 10.2918 5.88706 10.2706 5.38941 10.2282 4.98706C 10.1859 4.5847 10.08 4.16118 9.9106 3.71647C 9.74118 3.27176 9.46589 2.93294 9.08471 2.7C 8.72471 2.46706 8.24824 2.35059 7.6553 2.35059C 6.53295 2.35059 5.19883 3.04941 3.65295 4.44706L 3.65295 16.1682L 1.01647 16.1682L 1.01647 4.70118C 1.01647 2.98588 0.677647 1.57765 -4.0088e-08 0.47647L 2.8906 0.158824C 3.18707 0.878824 3.38824 1.60941 3.49413 2.35059C 5.10354 0.783529 6.63883 5.25082e-07 8.10001 5.25082e-07C 10.1541 5.25082e-07 11.6047 0.878823 12.4518 2.63647C 14.2094 0.878823 15.8506 5.25082e-07 17.3753 5.25082e-07C 19.0482 5.25082e-07 20.2659 0.508235 21.0282 1.52471C 21.8118 2.52 22.2035 3.88588 22.2035 5.62235L 22.2035 16.1682ZM 27.2256 23.0612L 26.0185 23.0612L 26.0185 20.9329L 26.3679 20.9329C 27.0032 20.9329 27.575 20.7847 28.0832 20.4882C 28.5915 20.2129 29.0256 19.8 29.3856 19.2494C 29.7668 18.6988 30.0632 18.1906 30.275 17.7247C 30.5079 17.2588 30.7409 16.6976 30.9738 16.0412L 25.1926 0.381176L 28.0515 0.381176L 32.2444 12.3882L 36.4373 0.381176L 38.915 0.381176L 33.3244 16.2318C 31.6938 20.7847 29.6609 23.0612 27.2256 23.0612ZM 38.0884 14.3894C 38.0884 13.7965 38.2895 13.2988 38.6919 12.8965C 39.0942 12.4941 39.5919 12.2929 40.1848 12.2929C 40.7566 12.2929 41.2437 12.5047 41.646 12.9282C 42.0695 13.3306 42.2813 13.8176 42.2813 14.3894C 42.2813 14.9612 42.0695 15.4588 41.646 15.8824C 41.2437 16.2847 40.7566 16.4859 40.1848 16.4859C 39.6131 16.4859 39.1154 16.2847 38.6919 15.8824C 38.2895 15.4588 38.0884 14.9612 38.0884 14.3894Z"/>
</defs>
</svg>
