<svg width="217" height="60" viewBox="0 0 217 60" version="1.1" xmlns="http://www.w3.org/2000/svg" xmlns:xlink="http://www.w3.org/1999/xlink">
<title>my.Self</title>
<desc>Created using Figma</desc>
<g id="Canvas" transform="translate(-2519 949)">
<g id="my.Self">
<g id="Self">
<use xlink:href="#path0_fill" transform="translate(2587 -943)" fill="#00315F"/>
</g>
<g id="Group 3">
<g id="my.Self">
<g id="Rectangle 2">
<mask id="mask0_outline_ins">
<use xlink:href="#path1_fill" fill="white" transform="translate(2576 -949)"/>
</mask>
<g mask="url(#mask0_outline_ins)">
<use xlink:href="#path2_stroke_2x" transform="translate(2576 -949)" fill="#00315F"/>
</g>
</g>
<g id="Self">
<use xlink:href="#path0_fill" transform="translate(2587 -943)" fill="#00315F"/>
</g>
</g>
</g>
<g id="Rectangle">
<g id="Vector">
<use xlink:href="#path3_fill" transform="translate(2519 -949)" fill="#00315F"/>
</g>
<mask id="mask1_alpha" mask-type="alpha">
<g id="mask0 outline ins">
<g id="Vector">
<use xlink:href="#path4_fill" transform="translate(2519 -949)" fill="#FFFFFF"/>
</g>
</g>
</mask>
<g id="Group" mask="url(#mask1_alpha)">
<g id="Vector">
<use xlink:href="#path5_fill" transform="translate(2515.91 -952.088)" fill="#00315F"/>
</g>
</g>
</g>
<g id="my.">
<g id="Vector">
<use xlink:href="#path6_fill" transform="translate(2527.77 -920.609)" fill="#FEFEFE"/>
</g>
</g>
</g>
</g>
<defs>
<path id="path0_fill" d="M 9.98975 13.116C 11.0458 13.116 11.8738 13.236 12.4737 13.476C 13.0978 13.692 13.7338 14.016 14.3817 14.448C 14.9098 14.784 15.3178 14.952 15.6058 14.952C 15.8218 14.952 15.9898 14.832 16.1098 14.592C 16.2298 14.328 16.3257 13.92 16.3977 13.368L 17.2257 13.368C 17.1057 14.76 17.0458 17.208 17.0458 20.712L 16.2177 20.712C 16.0738 18.768 15.5098 17.136 14.5258 15.816C 13.5658 14.472 12.1618 13.8 10.3137 13.8C 9.01775 13.8 7.96175 14.196 7.14575 14.988C 6.32975 15.756 5.92175 16.752 5.92175 17.976C 5.92175 18.888 6.12575 19.68 6.53375 20.352C 6.96575 21.024 7.50575 21.6 8.15375 22.08C 8.80175 22.56 9.72575 23.172 10.9258 23.916L 11.9697 24.564C 13.4818 25.5 14.6698 26.328 15.5338 27.048C 16.4218 27.744 17.1298 28.548 17.6578 29.46C 18.1858 30.372 18.4498 31.44 18.4498 32.664C 18.4498 34.848 17.7298 36.54 16.2898 37.74C 14.8498 38.916 13.0258 39.504 10.8178 39.504C 9.66575 39.504 8.71775 39.384 7.97375 39.144C 7.25375 38.904 6.55775 38.58 5.88575 38.172C 5.35775 37.836 4.94975 37.668 4.66175 37.668C 4.44575 37.668 4.27775 37.8 4.15775 38.064C 4.03775 38.304 3.94175 38.7 3.86975 39.252L 3.04175 39.252C 3.13775 37.932 3.18575 35.052 3.18575 30.612L 4.01375 30.612C 4.18175 33.036 4.78175 35.004 5.81375 36.516C 6.84575 38.028 8.42975 38.784 10.5658 38.784C 11.8618 38.784 12.9658 38.388 13.8778 37.596C 14.7898 36.78 15.2458 35.58 15.2458 33.996C 15.2458 32.652 14.7898 31.512 13.8778 30.576C 12.9898 29.64 11.5738 28.584 9.62975 27.408C 8.21375 26.544 7.06175 25.776 6.17375 25.104C 5.30975 24.432 4.60175 23.628 4.04975 22.692C 3.49775 21.732 3.22175 20.616 3.22175 19.344C 3.22175 17.328 3.86975 15.792 5.16575 14.736C 6.46175 13.656 8.06975 13.116 9.98975 13.116ZM 37.9632 34.68C 37.5312 36 36.7152 37.14 35.5152 38.1C 34.3392 39.036 32.9112 39.504 31.2312 39.504C 29.5272 39.504 28.0512 39.12 26.8032 38.352C 25.5552 37.56 24.5952 36.468 23.9232 35.076C 23.2752 33.66 22.9512 32.028 22.9512 30.18C 22.9512 28.092 23.2872 26.28 23.9592 24.744C 24.6312 23.208 25.5792 22.032 26.8032 21.216C 28.0272 20.376 29.4552 19.956 31.0872 19.956C 33.2472 19.956 34.9032 20.616 36.0552 21.936C 37.2312 23.232 37.8192 25.212 37.8192 27.876L 26.5512 27.876C 26.4792 28.548 26.4432 29.316 26.4432 30.18C 26.4432 31.764 26.6952 33.144 27.1992 34.32C 27.7272 35.496 28.4112 36.408 29.2512 37.056C 30.1152 37.68 31.0152 37.992 31.9512 37.992C 33.1032 37.992 34.1232 37.716 35.0112 37.164C 35.8992 36.612 36.6432 35.688 37.2432 34.392L 37.9632 34.68ZM 30.9432 20.64C 29.8152 20.64 28.8432 21.192 28.0272 22.296C 27.2112 23.4 26.7072 25.032 26.5152 27.192L 34.3632 27.192C 34.4112 25.32 34.1352 23.76 33.5352 22.512C 32.9592 21.264 32.0952 20.64 30.9432 20.64ZM 47.3541 35.652C 47.3541 36.636 47.5581 37.32 47.9661 37.704C 48.3741 38.064 49.0821 38.244 50.0901 38.244L 50.0901 39C 47.8821 38.904 46.4301 38.856 45.7341 38.856C 45.0381 38.856 43.5861 38.904 41.3781 39L 41.3781 38.244C 42.3861 38.244 43.0941 38.064 43.5021 37.704C 43.9101 37.32 44.1141 36.636 44.1141 35.652L 44.1141 15.096C 44.1141 13.992 43.9101 13.188 43.5021 12.684C 43.0941 12.18 42.3861 11.928 41.3781 11.928L 41.3781 11.172C 42.1221 11.244 42.8661 11.28 43.6101 11.28C 45.1221 11.28 46.3701 11.112 47.3541 10.776L 47.3541 35.652ZM 61.9029 10.848C 63.1509 10.848 64.1949 11.172 65.0349 11.82C 65.7789 12.42 66.1509 13.164 66.1509 14.052C 66.1509 14.604 65.9709 15.06 65.6109 15.42C 65.2509 15.78 64.7949 15.96 64.2429 15.96C 63.6909 15.96 63.2229 15.792 62.8389 15.456C 62.4549 15.096 62.2629 14.616 62.2629 14.016C 62.2629 13.512 62.3949 13.104 62.6589 12.792C 62.9469 12.48 63.3189 12.276 63.7749 12.18C 63.7029 11.94 63.5109 11.748 63.1989 11.604C 62.8869 11.46 62.4909 11.388 62.0109 11.388C 61.4829 11.388 61.0149 11.508 60.6069 11.748C 60.1989 11.988 59.8869 12.312 59.6709 12.72C 59.4069 13.2 59.2269 13.908 59.1309 14.844C 59.0589 15.78 59.0229 17.352 59.0229 19.56L 59.0229 20.496L 62.8749 20.496L 62.8749 21.216L 59.0229 21.216L 59.0229 35.292C 59.0229 36.396 59.3349 37.164 59.9589 37.596C 60.6069 38.028 61.5669 38.244 62.8389 38.244L 62.8389 39L 61.9749 38.964C 59.5269 38.892 57.9669 38.856 57.2949 38.856C 56.6709 38.856 55.2549 38.904 53.0469 39L 53.0469 38.244C 54.0549 38.244 54.7629 38.064 55.1709 37.704C 55.5789 37.32 55.7829 36.636 55.7829 35.652L 55.7829 21.216L 52.9029 21.216L 52.9029 20.496L 55.7829 20.496C 55.7829 18.384 55.9149 16.752 56.1789 15.6C 56.4429 14.448 56.9229 13.464 57.6189 12.648C 58.0989 12.096 58.7109 11.664 59.4549 11.352C 60.1989 11.016 61.0149 10.848 61.9029 10.848Z"/>
<path id="path1_fill" d="M 0 0L 160 0L 160 60L 0 60L 0 0Z"/>
<path id="path2_stroke_2x" d="M 0 0L 0 -2.5L -2.5 -2.5L -2.5 0L 0 0ZM 160 0L 162.5 0L 162.5 -2.5L 160 -2.5L 160 0ZM 160 60L 160 62.5L 162.5 62.5L 162.5 60L 160 60ZM 0 60L -2.5 60L -2.5 62.5L 0 62.5L 0 60ZM 0 2.5L 160 2.5L 160 -2.5L 0 -2.5L 0 2.5ZM 157.5 0L 157.5 60L 162.5 60L 162.5 0L 157.5 0ZM 160 57.5L 0 57.5L 0 62.5L 160 62.5L 160 57.5ZM 2.5 60L 2.5 0L -2.5 0L -2.5 60L 2.5 60Z"/>
<path id="path3_fill" d="M 0 0L 60 0L 60 60L 0 60L 0 0Z"/>
<path id="path4_fill" d="M 0 0L 60 0L 60 60L 0 60L 0 0Z"/>
<path id="path5_fill" d="M 3.08824 3.08824L 3.08824 0L 0 0L 0 3.08824L 3.08824 3.08824ZM 63.0882 3.08824L 66.1765 3.08824L 66.1765 0L 63.0882 0L 63.0882 3.08824ZM 63.0882 63.0882L 63.0882 66.1765L 66.1765 66.1765L 66.1765 63.0882L 63.0882 63.0882ZM 3.08824 63.0882L 0 63.0882L 0 66.1765L 3.08824 66.1765L 3.08824 63.0882ZM 3.08824 6.17647L 63.0882 6.17647L 63.0882 0L 3.08824 0L 3.08824 6.17647ZM 60 3.08824L 60 63.0882L 66.1765 63.0882L 66.1765 3.08824L 60 3.08824ZM 63.0882 60L 3.08824 60L 3.08824 66.1765L 63.0882 66.1765L 63.0882 60ZM 6.17647 63.0882L 6.17647 3.08824L 0 3.08824L 0 63.0882L 6.17647 63.0882Z"/>
<path id="path6_fill" d="M 22.2035 16.1682L 19.5671 16.1682L 19.5671 6.48C 19.5671 5.90824 19.5353 5.42118 19.4718 5.01882C 19.4294 4.61647 19.3235 4.19294 19.1541 3.74824C 19.0059 3.28235 18.7412 2.93294 18.36 2.7C 17.9788 2.46706 17.5024 2.35059 16.9306 2.35059C 15.7447 2.35059 14.3894 3.07059 12.8647 4.51059C 12.9071 4.93412 12.9282 5.30471 12.9282 5.62235L 12.9282 16.1682L 10.2918 16.1682L 10.2918 6.48C 10.2918 5.88706 10.2706 5.38941 10.2282 4.98706C 10.1859 4.58471 10.08 4.16118 9.9106 3.71647C 9.74118 3.27177 9.46589 2.93294 9.08471 2.7C 8.72471 2.46706 8.24824 2.35059 7.6553 2.35059C 6.53295 2.35059 5.19883 3.04941 3.65295 4.44706L 3.65295 16.1682L 1.01647 16.1682L 1.01647 4.70118C 1.01647 2.98588 0.677647 1.57765 -4.0088e-08 0.47647L 2.8906 0.158824C 3.18707 0.878824 3.38824 1.60941 3.49413 2.35059C 5.10354 0.783529 6.63883 5.25082e-07 8.10001 5.25082e-07C 10.1541 5.25082e-07 11.6047 0.878823 12.4518 2.63647C 14.2094 0.878823 15.8506 5.25082e-07 17.3753 5.25082e-07C 19.0482 5.25082e-07 20.2659 0.508235 21.0282 1.52471C 21.8118 2.52 22.2035 3.88588 22.2035 5.62235L 22.2035 16.1682ZM 27.2256 23.0612L 26.0185 23.0612L 26.0185 20.9329L 26.3679 20.9329C 27.0032 20.9329 27.575 20.7847 28.0832 20.4882C 28.5915 20.2129 29.0256 19.8 29.3856 19.2494C 29.7668 18.6988 30.0632 18.1906 30.275 17.7247C 30.5079 17.2588 30.7409 16.6976 30.9738 16.0412L 25.1926 0.381176L 28.0515 0.381176L 32.2444 12.3882L 36.4373 0.381176L 38.915 0.381176L 33.3244 16.2318C 31.6938 20.7847 29.6609 23.0612 27.2256 23.0612ZM 38.0884 14.3894C 38.0884 13.7965 38.2895 13.2988 38.6919 12.8965C 39.0942 12.4941 39.5919 12.2929 40.1848 12.2929C 40.7566 12.2929 41.2437 12.5047 41.646 12.9282C 42.0695 13.3306 42.2813 13.8176 42.2813 14.3894C 42.2813 14.9612 42.0695 15.4588 41.646 15.8824C 41.2437 16.2847 40.7566 16.4859 40.1848 16.4859C 39.6131 16.4859 39.1154 16.2847 38.6919 15.8824C 38.2895 15.4588 38.0884 14.9612 38.0884 14.3894Z"/>
</defs>
</svg>
