<svg width="217" height="60" viewBox="0 0 217 60" version="1.1" xmlns="http://www.w3.org/2000/svg" xmlns:xlink="http://www.w3.org/1999/xlink">
<title>my.Skills</title>
<desc>Created using Figma</desc>
<g id="Canvas" transform="translate(-2519 867)">
<g id="my.Skills">
<g id="Group 3.1">
<g id="my.Skills">
<g id="Rectangle 2">
<mask id="mask0_outline_ins">
<use xlink:href="#path0_fill" fill="white" transform="translate(2576 -867)"/>
</mask>
<g mask="url(#mask0_outline_ins)">
<use xlink:href="#path1_stroke_2x" transform="translate(2576 -867)" fill="#00315F"/>
</g>
</g>
<g id="Skills">
<use xlink:href="#path2_fill" transform="translate(2587 -861)" fill="#00315F"/>
</g>
</g>
</g>
<g id="Group (2)">
<g id="Canvas">
<g id="Group">
<g id="Rectangle">
<g id="Vector">
<use xlink:href="#path3_fill" transform="translate(2519 -867)" fill="#F05D5E"/>
</g>
<mask id="mask1_alpha" mask-type="alpha">
<g id="mask0 outline ins">
<g id="Vector">
<use xlink:href="#path3_fill" transform="translate(2519 -867)" fill="#FFFFFF"/>
</g>
</g>
</mask>
<g id="Group" mask="url(#mask1_alpha)">
<g id="Vector">
<use xlink:href="#path4_fill" transform="translate(2515.91 -870.088)" fill="#00315F"/>
</g>
</g>
</g>
<g id="my.">
<g id="Vector">
<use xlink:href="#path5_fill" transform="translate(2527.77 -838.609)" fill="#FEFEFE"/>
</g>
</g>
</g>
</g>
</g>
</g>
</g>
<defs>
<path id="path0_fill" d="M 0 0L 160 0L 160 60L 0 60L 0 0Z"/>
<path id="path1_stroke_2x" d="M 0 0L 0 -2.5L -2.5 -2.5L -2.5 0L 0 0ZM 160 0L 162.5 0L 162.5 -2.5L 160 -2.5L 160 0ZM 160 60L 160 62.5L 162.5 62.5L 162.5 60L 160 60ZM 0 60L -2.5 60L -2.5 62.5L 0 62.5L 0 60ZM 0 2.5L 160 2.5L 160 -2.5L 0 -2.5L 0 2.5ZM 157.5 0L 157.5 60L 162.5 60L 162.5 0L 157.5 0ZM 160 57.5L 0 57.5L 0 62.5L 160 62.5L 160 57.5ZM 2.5 60L 2.5 0L -2.5 0L -2.5 60L 2.5 60Z"/>
<path id="path2_fill" d="M 9.25163 13.116C 10.3076 13.116 11.1356 13.236 11.7356 13.476C 12.3596 13.692 12.9956 14.016 13.6436 14.448C 14.1716 14.784 14.5796 14.952 14.8676 14.952C 15.0836 14.952 15.2516 14.832 15.3716 14.592C 15.4916 14.328 15.5876 13.92 15.6596 13.368L 16.4876 13.368C 16.3676 14.76 16.3076 17.208 16.3076 20.712L 15.4796 20.712C 15.3356 18.768 14.7716 17.136 13.7876 15.816C 12.8276 14.472 11.4236 13.8 9.57563 13.8C 8.27963 13.8 7.22363 14.196 6.40763 14.988C 5.59163 15.756 5.18363 16.752 5.18363 17.976C 5.18363 18.888 5.38763 19.68 5.79563 20.352C 6.22763 21.024 6.76763 21.6 7.41563 22.08C 8.06363 22.56 8.98763 23.172 10.1876 23.916L 11.2316 24.564C 12.7436 25.5 13.9316 26.328 14.7956 27.048C 15.6836 27.744 16.3916 28.548 16.9196 29.46C 17.4476 30.372 17.7116 31.44 17.7116 32.664C 17.7116 34.848 16.9916 36.54 15.5516 37.74C 14.1116 38.916 12.2876 39.504 10.0796 39.504C 8.92763 39.504 7.97963 39.384 7.23563 39.144C 6.51563 38.904 5.81963 38.58 5.14763 38.172C 4.61963 37.836 4.21163 37.668 3.92363 37.668C 3.70763 37.668 3.53963 37.8 3.41963 38.064C 3.29963 38.304 3.20363 38.7 3.13163 39.252L 2.30363 39.252C 2.39963 37.932 2.44763 35.052 2.44763 30.612L 3.27563 30.612C 3.44363 33.036 4.04363 35.004 5.07563 36.516C 6.10763 38.028 7.69163 38.784 9.82763 38.784C 11.1236 38.784 12.2276 38.388 13.1396 37.596C 14.0516 36.78 14.5076 35.58 14.5076 33.996C 14.5076 32.652 14.0516 31.512 13.1396 30.576C 12.2516 29.64 10.8356 28.584 8.89163 27.408C 7.47563 26.544 6.32363 25.776 5.43563 25.104C 4.57163 24.432 3.86363 23.628 3.31163 22.692C 2.75963 21.732 2.48363 20.616 2.48363 19.344C 2.48363 17.328 3.13163 15.792 4.42763 14.736C 5.72363 13.656 7.33163 13.116 9.25163 13.116ZM 37.585 36.372C 38.041 36.972 38.449 37.416 38.809 37.704C 39.169 37.992 39.601 38.172 40.105 38.244L 40.105 39C 38.665 38.904 37.693 38.856 37.189 38.856C 36.541 38.856 35.209 38.904 33.193 39L 33.193 38.244C 33.529 38.244 33.793 38.184 33.985 38.064C 34.201 37.92 34.309 37.752 34.309 37.56C 34.309 37.368 34.237 37.188 34.093 37.02L 29.953 30.972C 29.545 30.372 29.149 29.976 28.765 29.784C 28.405 29.568 27.901 29.436 27.253 29.388L 27.253 35.652C 27.253 36.636 27.421 37.32 27.757 37.704C 28.117 38.064 28.741 38.244 29.629 38.244L 29.629 39C 27.613 38.904 26.281 38.856 25.633 38.856C 24.937 38.856 23.485 38.904 21.277 39L 21.277 38.244C 22.285 38.244 22.993 38.064 23.401 37.704C 23.809 37.32 24.013 36.636 24.013 35.652L 24.013 15.096C 24.013 13.992 23.809 13.188 23.401 12.684C 22.993 12.18 22.285 11.928 21.277 11.928L 21.277 11.172C 22.045 11.244 22.789 11.28 23.509 11.28C 25.021 11.28 26.269 11.112 27.253 10.776L 27.253 28.632C 27.949 28.536 28.525 28.38 28.981 28.164C 29.461 27.924 29.917 27.588 30.349 27.156L 33.013 24.384C 33.781 23.592 34.165 22.932 34.165 22.404C 34.165 21.996 33.913 21.696 33.409 21.504C 32.929 21.288 32.293 21.18 31.501 21.18L 31.501 20.46C 33.181 20.556 34.537 20.604 35.569 20.604C 36.697 20.604 37.741 20.556 38.701 20.46L 38.701 21.18C 37.525 21.276 36.445 21.84 35.461 22.872L 31.069 27.48L 37.585 36.372ZM 46.578 11.46C 47.202 11.46 47.742 11.688 48.198 12.144C 48.654 12.6 48.882 13.14 48.882 13.764C 48.882 14.388 48.654 14.928 48.198 15.384C 47.742 15.84 47.202 16.068 46.578 16.068C 45.954 16.068 45.414 15.84 44.958 15.384C 44.502 14.928 44.274 14.388 44.274 13.764C 44.274 13.14 44.502 12.6 44.958 12.144C 45.414 11.688 45.954 11.46 46.578 11.46ZM 48.45 35.652C 48.45 36.636 48.654 37.32 49.062 37.704C 49.47 38.064 50.178 38.244 51.186 38.244L 51.186 39C 48.978 38.904 47.526 38.856 46.83 38.856C 46.134 38.856 44.682 38.904 42.474 39L 42.474 38.244C 43.482 38.244 44.19 38.064 44.598 37.704C 45.006 37.32 45.21 36.636 45.21 35.652L 45.21 24.384C 45.21 23.28 45.006 22.476 44.598 21.972C 44.19 21.468 43.482 21.216 42.474 21.216L 42.474 20.46C 43.242 20.532 43.986 20.568 44.706 20.568C 46.218 20.568 47.466 20.4 48.45 20.064L 48.45 35.652ZM 59.8249 35.652C 59.8249 36.636 60.0289 37.32 60.4369 37.704C 60.8449 38.064 61.5529 38.244 62.5609 38.244L 62.5609 39C 60.3529 38.904 58.9009 38.856 58.2049 38.856C 57.5089 38.856 56.0569 38.904 53.8489 39L 53.8489 38.244C 54.8569 38.244 55.5649 38.064 55.9729 37.704C 56.3809 37.32 56.5849 36.636 56.5849 35.652L 56.5849 15.096C 56.5849 13.992 56.3809 13.188 55.9729 12.684C 55.5649 12.18 54.8569 11.928 53.8489 11.928L 53.8489 11.172C 54.5929 11.244 55.3369 11.28 56.0809 11.28C 57.5929 11.28 58.8409 11.112 59.8249 10.776L 59.8249 35.652ZM 71.2057 35.652C 71.2057 36.636 71.4097 37.32 71.8177 37.704C 72.2257 38.064 72.9337 38.244 73.9417 38.244L 73.9417 39C 71.7337 38.904 70.2817 38.856 69.5857 38.856C 68.8897 38.856 67.4377 38.904 65.2297 39L 65.2297 38.244C 66.2377 38.244 66.9457 38.064 67.3537 37.704C 67.7617 37.32 67.9657 36.636 67.9657 35.652L 67.9657 15.096C 67.9657 13.992 67.7617 13.188 67.3537 12.684C 66.9457 12.18 66.2377 11.928 65.2297 11.928L 65.2297 11.172C 65.9737 11.244 66.7177 11.28 67.4617 11.28C 68.9737 11.28 70.2217 11.112 71.2057 10.776L 71.2057 35.652ZM 83.3064 19.956C 84.1704 19.956 84.9384 20.088 85.6104 20.352C 86.2824 20.616 86.8224 20.928 87.2304 21.288C 87.4944 21.48 87.7104 21.576 87.8784 21.576C 88.3104 21.576 88.5744 21.048 88.6704 19.992L 89.4984 19.992C 89.4024 21.168 89.3544 23.208 89.3544 26.112L 88.5264 26.112C 88.2624 24.528 87.7464 23.22 86.9784 22.188C 86.2344 21.156 85.1184 20.64 83.6304 20.64C 82.7664 20.64 82.0584 20.892 81.5064 21.396C 80.9544 21.876 80.6784 22.548 80.6784 23.412C 80.6784 24.252 80.9664 24.96 81.5424 25.536C 82.1184 26.088 83.0424 26.76 84.3144 27.552C 84.5304 27.672 84.8544 27.876 85.2864 28.164C 86.3904 28.884 87.2784 29.52 87.9504 30.072C 88.6224 30.624 89.1624 31.26 89.5704 31.98C 90.0024 32.7 90.2184 33.528 90.2184 34.464C 90.2184 36.048 89.6184 37.284 88.4184 38.172C 87.2424 39.06 85.7904 39.504 84.0624 39.504C 82.9824 39.504 82.0344 39.336 81.2184 39C 80.6904 38.736 80.1984 38.412 79.7424 38.028C 79.6464 37.932 79.5384 37.884 79.4184 37.884C 79.2504 37.884 79.0944 38.004 78.9504 38.244C 78.8304 38.484 78.7344 38.82 78.6624 39.252L 77.8344 39.252C 77.9304 37.884 77.9784 35.484 77.9784 32.052L 78.8064 32.052C 79.0704 34.308 79.5504 36 80.2464 37.128C 80.9424 38.232 82.1304 38.784 83.8104 38.784C 84.6504 38.784 85.3944 38.508 86.0424 37.956C 86.6904 37.404 87.0144 36.54 87.0144 35.364C 87.0144 34.428 86.6904 33.636 86.0424 32.988C 85.4184 32.34 84.3864 31.56 82.9464 30.648C 81.7704 29.904 80.8584 29.292 80.2104 28.812C 79.5864 28.332 79.0584 27.744 78.6264 27.048C 78.1944 26.352 77.9784 25.536 77.9784 24.6C 77.9784 23.088 78.4824 21.936 79.4904 21.144C 80.4984 20.352 81.7704 19.956 83.3064 19.956Z"/>
<path id="path3_fill" d="M 0 0L 60 0L 60 60L 0 60L 0 0Z"/>
<path id="path4_fill" d="M 3.08824 3.08824L 3.08824 0L 0 0L 0 3.08824L 3.08824 3.08824ZM 63.0882 3.08824L 66.1765 3.08824L 66.1765 0L 63.0882 0L 63.0882 3.08824ZM 63.0882 63.0882L 63.0882 66.1765L 66.1765 66.1765L 66.1765 63.0882L 63.0882 63.0882ZM 3.08824 63.0882L 0 63.0882L 0 66.1765L 3.08824 66.1765L 3.08824 63.0882ZM 3.08824 6.17647L 63.0882 6.17647L 63.0882 0L 3.08824 0L 3.08824 6.17647ZM 60 3.08824L 60 63.0882L 66.1765 63.0882L 66.1765 3.08824L 60 3.08824ZM 63.0882 60L 3.08824 60L 3.08824 66.1765L 63.0882 66.1765L 63.0882 60ZM 6.17647 63.0882L 6.17647 3.08824L 0 3.08824L 0 63.0882L 6.17647 63.0882Z"/>
<path id="path5_fill" d="M 22.2035 16.1682L 19.5671 16.1682L 19.5671 6.48C 19.5671 5.90824 19.5353 5.42118 19.4718 5.01882C 19.4294 4.61647 19.3235 4.19294 19.1541 3.74823C 19.0059 3.28235 18.7412 2.93294 18.36 2.7C 17.9788 2.46706 17.5024 2.35059 16.9306 2.35059C 15.7447 2.35059 14.3894 3.07059 12.8647 4.51059C 12.9071 4.93412 12.9282 5.30471 12.9282 5.62235L 12.9282 16.1682L 10.2918 16.1682L 10.2918 6.48C 10.2918 5.88706 10.2706 5.38941 10.2282 4.98706C 10.1859 4.5847 10.08 4.16118 9.9106 3.71647C 9.74118 3.27176 9.46589 2.93294 9.08471 2.7C 8.72471 2.46706 8.24824 2.35059 7.6553 2.35059C 6.53295 2.35059 5.19883 3.04941 3.65295 4.44706L 3.65295 16.1682L 1.01647 16.1682L 1.01647 4.70118C 1.01647 2.98588 0.677647 1.57765 -4.0088e-08 0.47647L 2.8906 0.158824C 3.18707 0.878824 3.38824 1.60941 3.49413 2.35059C 5.10354 0.783529 6.63883 5.25082e-07 8.10001 5.25082e-07C 10.1541 5.25082e-07 11.6047 0.878823 12.4518 2.63647C 14.2094 0.878823 15.8506 5.25082e-07 17.3753 5.25082e-07C 19.0482 5.25082e-07 20.2659 0.508235 21.0282 1.52471C 21.8118 2.52 22.2035 3.88588 22.2035 5.62235L 22.2035 16.1682ZM 27.2256 23.0612L 26.0185 23.0612L 26.0185 20.9329L 26.3679 20.9329C 27.0032 20.9329 27.575 20.7847 28.0832 20.4882C 28.5915 20.2129 29.0256 19.8 29.3856 19.2494C 29.7668 18.6988 30.0632 18.1906 30.275 17.7247C 30.5079 17.2588 30.7409 16.6976 30.9738 16.0412L 25.1926 0.381176L 28.0515 0.381176L 32.2444 12.3882L 36.4373 0.381176L 38.915 0.381176L 33.3244 16.2318C 31.6938 20.7847 29.6609 23.0612 27.2256 23.0612ZM 38.0884 14.3894C 38.0884 13.7965 38.2895 13.2988 38.6919 12.8965C 39.0942 12.4941 39.5919 12.2929 40.1848 12.2929C 40.7566 12.2929 41.2437 12.5047 41.646 12.9282C 42.0695 13.3306 42.2813 13.8176 42.2813 14.3894C 42.2813 14.9612 42.0695 15.4588 41.646 15.8824C 41.2437 16.2847 40.7566 16.4859 40.1848 16.4859C 39.6131 16.4859 39.1154 16.2847 38.6919 15.8824C 38.2895 15.4588 38.0884 14.9612 38.0884 14.3894Z"/>
</defs>
</svg>
