<svg width="217" height="60" viewBox="0 0 217 60" version="1.1" xmlns="http://www.w3.org/2000/svg" xmlns:xlink="http://www.w3.org/1999/xlink">
<title>my.Work</title>
<desc>Created using Figma</desc>
<g id="Canvas" transform="translate(-2519 785)">
<g id="my.Work">
<g id="Group 3.1">
<g id="my.Work">
<g id="Rectangle 2">
<mask id="mask0_outline_ins">
<use xlink:href="#path0_fill" fill="white" transform="translate(2576 -785)"/>
</mask>
<g mask="url(#mask0_outline_ins)">
<use xlink:href="#path1_stroke_2x" transform="translate(2576 -785)" fill="#00315F"/>
</g>
</g>
<g id="Work">
<use xlink:href="#path2_fill" transform="translate(2587 -779)" fill="#00315F"/>
</g>
</g>
</g>
<g id="Group">
<g id="Rectangle">
<g id="Vector">
<use xlink:href="#path3_fill" transform="translate(2519 -785)" fill="#46B9FA"/>
</g>
<mask id="mask1_alpha" mask-type="alpha">
<g id="mask0 outline ins">
<g id="Vector">
<use xlink:href="#path3_fill" transform="translate(2519 -785)" fill="#FFFFFF"/>
</g>
</g>
</mask>
<g id="Group" mask="url(#mask1_alpha)">
<g id="Vector">
<use xlink:href="#path4_fill" transform="translate(2515.91 -788.088)" fill="#00315F"/>
</g>
</g>
</g>
<g id="Rectangle">
<g id="Vector">
<use xlink:href="#path3_fill" transform="translate(2519 -785)" fill="#46B9FA"/>
</g>
<mask id="mask2_alpha" mask-type="alpha">
<g id="mask0 outline ins">
<g id="Vector">
<use xlink:href="#path3_fill" transform="translate(2519 -785)" fill="#FFFFFF"/>
</g>
</g>
</mask>
<g id="Group" mask="url(#mask2_alpha)">
<g id="Vector">
<use xlink:href="#path4_fill" transform="translate(2515.91 -788.088)" fill="#00315F"/>
</g>
</g>
</g>
<g id="my.">
<g id="Vector">
<use xlink:href="#path5_fill" transform="translate(2527.77 -756.609)" fill="#FEFEFE"/>
</g>
</g>
</g>
</g>
</g>
<defs>
<path id="path0_fill" d="M 0 0L 160 0L 160 60L 0 60L 0 0Z"/>
<path id="path1_stroke_2x" d="M 0 0L 0 -2.5L -2.5 -2.5L -2.5 0L 0 0ZM 160 0L 162.5 0L 162.5 -2.5L 160 -2.5L 160 0ZM 160 60L 160 62.5L 162.5 62.5L 162.5 60L 160 60ZM 0 60L -2.5 60L -2.5 62.5L 0 62.5L 0 60ZM 0 2.5L 160 2.5L 160 -2.5L 0 -2.5L 0 2.5ZM 157.5 0L 157.5 60L 162.5 60L 162.5 0L 157.5 0ZM 160 57.5L 0 57.5L 0 62.5L 160 62.5L 160 57.5ZM 2.5 60L 2.5 0L -2.5 0L -2.5 60L 2.5 60Z"/>
<path id="path2_fill" d="M 29.952 13.62C 31.032 13.62 31.932 13.584 32.652 13.512L 32.652 14.232C 31.308 14.544 30.36 15.588 29.808 17.364L 23.004 39.18L 22.716 39.18L 22.428 39.18L 16.164 20.64L 10.44 39.18L 10.152 39.18L 9.864 39.18L 2.232 16.536C 1.728 15.048 0.9 14.28 -0.252 14.232L -0.252 13.512C 0.732 13.584 2.016 13.62 3.6 13.62C 5.328 13.62 6.624 13.584 7.488 13.512L 7.488 14.232C 6.84 14.28 6.384 14.4 6.12 14.592C 5.856 14.784 5.724 15.084 5.724 15.492C 5.724 15.876 5.856 16.464 6.12 17.256L 11.376 33.312L 15.768 19.38L 14.796 16.536C 14.316 15.048 13.608 14.28 12.672 14.232L 12.672 13.512C 13.536 13.584 14.7 13.62 16.164 13.62C 18.228 13.62 19.764 13.584 20.772 13.512L 20.772 14.232C 19.86 14.28 19.224 14.388 18.864 14.556C 18.504 14.7 18.324 15.024 18.324 15.528C 18.324 15.96 18.444 16.536 18.684 17.256L 23.868 33.276L 28.296 19.344C 28.68 18.168 28.872 17.196 28.872 16.428C 28.872 15.636 28.632 15.084 28.152 14.772C 27.672 14.436 26.892 14.256 25.812 14.232L 25.812 13.512C 27.18 13.584 28.56 13.62 29.952 13.62ZM 41.0377 19.956C 43.4857 19.956 45.4537 20.772 46.9417 22.404C 48.4537 24.012 49.2097 26.46 49.2097 29.748C 49.2097 33.036 48.4537 35.484 46.9417 37.092C 45.4537 38.7 43.4857 39.504 41.0377 39.504C 38.5897 39.504 36.6098 38.7 35.0977 37.092C 33.6097 35.484 32.8657 33.036 32.8657 29.748C 32.8657 26.46 33.6097 24.012 35.0977 22.404C 36.6098 20.772 38.5897 19.956 41.0377 19.956ZM 41.0377 20.676C 39.5977 20.676 38.4578 21.42 37.6178 22.908C 36.7777 24.372 36.3577 26.652 36.3577 29.748C 36.3577 32.844 36.7777 35.124 37.6178 36.588C 38.4578 38.052 39.5977 38.784 41.0377 38.784C 42.4777 38.784 43.6177 38.052 44.4577 36.588C 45.2978 35.124 45.7178 32.844 45.7178 29.748C 45.7178 26.652 45.2978 24.372 44.4577 22.908C 43.6177 21.42 42.4777 20.676 41.0377 20.676ZM 64.2164 19.956C 65.1764 19.956 65.9564 20.232 66.5564 20.784C 67.1804 21.336 67.4924 22.008 67.4924 22.8C 67.4924 23.424 67.3004 23.964 66.9164 24.42C 66.5564 24.852 66.0644 25.068 65.4404 25.068C 64.9124 25.068 64.4564 24.9 64.0724 24.564C 63.7124 24.228 63.5324 23.772 63.5324 23.196C 63.5324 22.404 63.9404 21.756 64.7564 21.252C 64.5884 21.012 64.3364 20.892 64.0004 20.892C 63.0644 20.892 62.2124 21.264 61.4444 22.008C 60.6764 22.728 60.0764 23.616 59.6444 24.672C 59.2124 25.728 58.9964 26.724 58.9964 27.66L 58.9964 35.292C 58.9964 36.396 59.3084 37.164 59.9324 37.596C 60.5804 38.028 61.5404 38.244 62.8124 38.244L 62.8124 39L 61.9484 38.964C 59.5004 38.892 57.9404 38.856 57.2684 38.856C 56.6444 38.856 55.2284 38.904 53.0204 39L 53.0204 38.244C 54.0284 38.244 54.7364 38.064 55.1444 37.704C 55.5524 37.32 55.7564 36.636 55.7564 35.652L 55.7564 24.384C 55.7564 23.28 55.5524 22.476 55.1444 21.972C 54.7364 21.468 54.0284 21.216 53.0204 21.216L 53.0204 20.46C 53.7884 20.532 54.5324 20.568 55.2524 20.568C 56.7644 20.568 58.0124 20.4 58.9964 20.064L 58.9964 24.564C 59.4284 23.364 60.1124 22.296 61.0484 21.36C 62.0084 20.424 63.0644 19.956 64.2164 19.956ZM 85.4125 36.372C 85.8685 36.972 86.2765 37.416 86.6365 37.704C 86.9965 37.992 87.4285 38.172 87.9325 38.244L 87.9325 39C 86.4925 38.904 85.5205 38.856 85.0165 38.856C 84.3685 38.856 83.0365 38.904 81.0205 39L 81.0205 38.244C 81.3565 38.244 81.6205 38.184 81.8125 38.064C 82.0285 37.92 82.1365 37.752 82.1365 37.56C 82.1365 37.368 82.0645 37.188 81.9205 37.02L 77.7805 30.972C 77.3725 30.372 76.9765 29.976 76.5925 29.784C 76.2325 29.568 75.7285 29.436 75.0805 29.388L 75.0805 35.652C 75.0805 36.636 75.2485 37.32 75.5845 37.704C 75.9445 38.064 76.5685 38.244 77.4565 38.244L 77.4565 39C 75.4405 38.904 74.1085 38.856 73.4605 38.856C 72.7645 38.856 71.3125 38.904 69.1045 39L 69.1045 38.244C 70.1125 38.244 70.8205 38.064 71.2285 37.704C 71.6365 37.32 71.8405 36.636 71.8405 35.652L 71.8405 15.096C 71.8405 13.992 71.6365 13.188 71.2285 12.684C 70.8205 12.18 70.1125 11.928 69.1045 11.928L 69.1045 11.172C 69.8725 11.244 70.6165 11.28 71.3365 11.28C 72.8485 11.28 74.0965 11.112 75.0805 10.776L 75.0805 28.632C 75.7765 28.536 76.3525 28.38 76.8085 28.164C 77.2885 27.924 77.7445 27.588 78.1765 27.156L 80.8405 24.384C 81.6085 23.592 81.9925 22.932 81.9925 22.404C 81.9925 21.996 81.7405 21.696 81.2365 21.504C 80.7565 21.288 80.1205 21.18 79.3285 21.18L 79.3285 20.46C 81.0085 20.556 82.3645 20.604 83.3965 20.604C 84.5245 20.604 85.5685 20.556 86.5285 20.46L 86.5285 21.18C 85.3525 21.276 84.2725 21.84 83.2885 22.872L 78.8965 27.48L 85.4125 36.372Z"/>
<path id="path3_fill" d="M 0 0L 60 0L 60 60L 0 60L 0 0Z"/>
<path id="path4_fill" d="M 3.08824 3.08824L 3.08824 0L 0 0L 0 3.08824L 3.08824 3.08824ZM 63.0882 3.08824L 66.1765 3.08824L 66.1765 0L 63.0882 0L 63.0882 3.08824ZM 63.0882 63.0882L 63.0882 66.1765L 66.1765 66.1765L 66.1765 63.0882L 63.0882 63.0882ZM 3.08824 63.0882L 0 63.0882L 0 66.1765L 3.08824 66.1765L 3.08824 63.0882ZM 3.08824 6.17647L 63.0882 6.17647L 63.0882 0L 3.08824 0L 3.08824 6.17647ZM 60 3.08824L 60 63.0882L 66.1765 63.0882L 66.1765 3.08824L 60 3.08824ZM 63.0882 60L 3.08824 60L 3.08824 66.1765L 63.0882 66.1765L 63.0882 60ZM 6.17647 63.0882L 6.17647 3.08824L 0 3.08824L 0 63.0882L 6.17647 63.0882Z"/>
<path id="path5_fill" d="M 22.2035 16.1682L 19.5671 16.1682L 19.5671 6.48C 19.5671 5.90824 19.5353 5.42118 19.4718 5.01882C 19.4294 4.61647 19.3235 4.19294 19.1541 3.74823C 19.0059 3.28235 18.7412 2.93294 18.36 2.7C 17.9788 2.46706 17.5024 2.35059 16.9306 2.35059C 15.7447 2.35059 14.3894 3.07059 12.8647 4.51059C 12.9071 4.93412 12.9282 5.30471 12.9282 5.62235L 12.9282 16.1682L 10.2918 16.1682L 10.2918 6.48C 10.2918 5.88706 10.2706 5.38941 10.2282 4.98706C 10.1859 4.5847 10.08 4.16118 9.9106 3.71647C 9.74118 3.27176 9.46589 2.93294 9.08471 2.7C 8.72471 2.46706 8.24824 2.35059 7.6553 2.35059C 6.53295 2.35059 5.19883 3.04941 3.65295 4.44706L 3.65295 16.1682L 1.01647 16.1682L 1.01647 4.70118C 1.01647 2.98588 0.677647 1.57765 -4.0088e-08 0.47647L 2.8906 0.158824C 3.18707 0.878824 3.38824 1.60941 3.49413 2.35059C 5.10354 0.783529 6.63883 5.25082e-07 8.10001 5.25082e-07C 10.1541 5.25082e-07 11.6047 0.878823 12.4518 2.63647C 14.2094 0.878823 15.8506 5.25082e-07 17.3753 5.25082e-07C 19.0482 5.25082e-07 20.2659 0.508235 21.0282 1.52471C 21.8118 2.52 22.2035 3.88588 22.2035 5.62235L 22.2035 16.1682ZM 27.2256 23.0612L 26.0185 23.0612L 26.0185 20.9329L 26.3679 20.9329C 27.0032 20.9329 27.575 20.7847 28.0832 20.4882C 28.5915 20.2129 29.0256 19.8 29.3856 19.2494C 29.7668 18.6988 30.0632 18.1906 30.275 17.7247C 30.5079 17.2588 30.7409 16.6976 30.9738 16.0412L 25.1926 0.381176L 28.0515 0.381176L 32.2444 12.3882L 36.4373 0.381176L 38.915 0.381176L 33.3244 16.2318C 31.6938 20.7847 29.6609 23.0612 27.2256 23.0612ZM 38.0884 14.3894C 38.0884 13.7965 38.2895 13.2988 38.6919 12.8965C 39.0942 12.4941 39.5919 12.2929 40.1848 12.2929C 40.7566 12.2929 41.2437 12.5047 41.646 12.9282C 42.0695 13.3306 42.2813 13.8176 42.2813 14.3894C 42.2813 14.9612 42.0695 15.4588 41.646 15.8824C 41.2437 16.2847 40.7566 16.4859 40.1848 16.4859C 39.6131 16.4859 39.1154 16.2847 38.6919 15.8824C 38.2895 15.4588 38.0884 14.9612 38.0884 14.3894Z"/>
</defs>
</svg>
